<svg viewBox="0 0 1024 1024" xmlns="http://www.w3.org/2000/svg">
  <g id="Desktop" stroke="none" stroke-width="1" fill="none" fill-rule="evenodd">
    <path fill="#FFF" d="M0 0h1024v1024H0z"/>
    <path id="backgroundw1" stroke="#979797" fill="#FFF" d="M.5.5h1023v1023H.5z"/>

    <g id="minitype" transform="translate(388 472)" fill="#000">
      <path d="M86.544.035c-6.202.072-12.409.12-18.61-.014-2.094-.045-3.036.642-3.659 2.657-4.718 15.27-9.543 30.507-14.352 45.75-1.66 5.266-3.368 10.518-5.055 15.776-.93-1.07-1.334-2.134-1.68-3.217-6.215-19.502-12.442-39-18.596-58.52C24.04.715 23.299-.02 21.366.021 15.347.152 9.32.206 3.304.006.604-.084-.009.824 0 3.409c.093 25.074.058 50.149.06 75.224v3.1h16.078V23.17c.64.457.867.938 1.028 1.44 5.864 18.272 11.75 36.536 17.537 54.832.591 1.87 1.388 2.62 3.395 2.544 4.1-.157 8.218-.202 12.313.004 2.338.118 3.33-.719 4.007-2.908C59.82 61.62 65.33 44.193 70.815 26.758c.367-1.167.796-2.314 1.196-3.471l.61.126v58.404h16.133c.09-.772.207-1.3.207-1.828.008-25.898-.01-51.797.039-77.695.003-1.908-.779-2.279-2.456-2.259" id="Fill-4"/>
      <path d="M208.907.024c-3.373.19-6.775.22-10.144-.001-2.574-.17-3.22.715-3.204 3.209.103 17.238.055 34.476.057 51.715v2.903c-1.07-.706-1.64-1.58-2.142-2.492-9.724-17.65-19.468-35.288-29.114-52.98-.98-1.794-2.117-2.396-4.092-2.342-4.66.126-9.335.207-13.987-.024-2.753-.137-3.292.864-3.281 3.402.092 22.254.054 44.51.054 66.764 0 3.101-.089 6.206.058 9.3.036.759.818 2.108 1.291 2.123 4.896.157 9.798.097 14.888.097V24.455c.2-.06.4-.12.6-.178.293.42.628.817.874 1.263 8.645 15.643 17.274 31.295 25.928 46.932 1.673 3.024 2.766 7.077 5.356 8.682 2.468 1.529 6.541.51 9.91.553 3.25.042 6.5.01 9.985.01v-4.778c0-24.626-.036-49.253.056-73.878.009-2.452-.704-3.171-3.093-3.037" id="Fill-6"/>
      <path d="M111.27.01c-2.475-.104-3.28.542-3.27 3.16.099 25.341.054 50.682.06 76.022 0 .963.104 1.926.156 2.808H125V.064c-4.767 0-9.255.135-13.73-.054" id="Fill-8"/>
      <path d="M231 2.838c.064 25.43.037 50.862.042 76.293 0 .893.082 1.786.135 2.869h16.543c.112-.53.216-.797.217-1.064.018-26.256.017-52.513.063-78.77.003-1.753-.73-2.177-2.306-2.146-3.996.08-8 .16-11.99-.012-2.23-.096-2.71.712-2.704 2.83" id="Fill-10"/>
    </g>

    <path d="M509.051 668.005c-85.486-1.876-152.864-71.672-152.225-155.951.666-87.926 74.011-157.514 161.687-153.766 83.835 3.584 149.067 72.698 148.507 155.662-.592 87.628-72.783 155.52-157.969 154.055zm411.701-251.759c-84.142.002-168.283-.012-252.425.073-2.737.003-4.243-.884-5.726-3.1-20.211-30.217-47.013-52.626-80.544-66.767-34.919-14.726-71.119-18.186-108.096-10.098-47.887 10.472-85.373 36.603-112.862 77.06-1.384 2.037-2.72 2.895-5.241 2.893-83.135-.07-166.269-.056-249.404-.054H100c1.183 1.255 1.785 1.929 2.423 2.565 6.928 6.912 13.937 13.746 20.743 20.776 1.82 1.88 3.631 2.579 6.205 2.577 70.957-.067 141.914-.062 212.871-.062.887 0 1.773.082 2.94.14-.327 1.01-.567 1.762-.814 2.512-2.635 7.978-5.455 15.902-7.803 23.963-.786 2.698-1.74 3.526-4.561 3.521-57.316-.094-114.63-.073-171.946-.075h-3.965c.77.888 1.136 1.367 1.557 1.79 7.367 7.378 14.774 14.716 22.08 22.153 1.403 1.427 2.818 1.966 4.812 1.964 47.793-.05 95.586-.037 143.379-.034h3.308v30.15H212.646l-.51.966c.763.51 1.633.911 2.272 1.545 6.82 6.76 13.673 13.487 20.352 20.383 1.987 2.051 3.972 2.954 6.893 2.943 30.397-.11 60.795-.049 91.192-.111 2.12-.004 2.864.659 3.483 2.73 2.43 8.135 5.176 16.176 7.82 24.247.3.913.694 1.796 1.27 3.267h-77.295c.896 1.005 1.293 1.498 1.739 1.942 7.248 7.232 14.54 14.423 21.727 21.716 1.454 1.476 2.916 2.124 5.009 2.116 19.959-.07 39.918-.014 59.878-.09 1.974-.008 3.117.61 4.219 2.237 29.792 43.98 70.75 70.823 123.31 79.536 26.78 4.438 53.303 2.65 79.272-5.2 41.672-12.598 74.67-37.109 99.035-73.127 1.74-2.572 3.545-3.494 6.618-3.472 19.5.14 39.003.113 58.504-.008 1.525-.009 3.412-.768 4.504-1.824 7.425-7.178 14.685-14.526 21.986-21.831.523-.523.947-1.143 1.89-2.297H678.69c.338-1.06.55-1.743.774-2.422 2.685-8.15 5.537-16.251 7.96-24.478.723-2.452 1.664-3.059 4.07-3.052 30.58.08 61.161.035 91.741.092 1.98.004 3.446-.49 4.85-1.911 7.453-7.541 14.991-15 22.483-22.502.322-.323.476-.814.933-1.622H692.618v-29.922h3.473c47.61-.002 95.22-.017 142.83.029 2.255.002 3.902-.587 5.524-2.249 7.084-7.262 14.325-14.372 21.498-21.548.53-.53.97-1.151 1.767-2.107h-3.018c-12.36.002-24.72.005-37.08.005-45.322.001-90.643-.02-135.965.053-2.501.003-3.52-.576-4.272-3.184-2.352-8.153-5.193-16.165-7.844-24.231l-.894-2.715h3.149c24.08.008 48.159.023 72.239.024 46.969.004 93.938-.012 140.907.04 2.27.003 3.89-.617 5.508-2.278 7.016-7.203 14.193-14.25 21.303-21.362.598-.598 1.134-1.258 2.045-2.275h-3.036z" id="logo" fill="#000"/>
    <path d="M511.5 668C426.172 668 357 598.828 357 513.5S426.172 359 511.5 359 666 428.172 666 513.5 596.828 668 511.5 668m175.86-201.769a180.513 180.513 0 00-6.641-20.162C841.312 453.522 905 356.443 905 356.443l-12.967-47.175c-57.947 110.81-210.824 105.343-228.16 104.352-32.518-49.698-88.7-82.544-152.572-82.544-63.002 0-118.532 31.955-151.24 80.522-33.602.912-168.48-2.074-222.094-104.598L125 354.174s61.946 94.428 217.71 89.877a180.431 180.431 0 00-7.077 20.738c-37.307 3.97-142.827 8.741-196.821-55.097l-9.725 34.742s52.258 68.577 200.71 53.255a184.33 184.33 0 00-.65 15.35c0 4.096.15 8.157.417 12.186-22.314 4.273-87.212 14.105-136.78-4.463l17.738 34.595s46.95 18.98 123.503-.35a180.493 180.493 0 009.25 28.4c-18.196 6.007-49.211 11.628-92.116 3.202l11.703 24.419s52.887 7.738 91.256-6.002C385.755 658.855 444.298 695 511.3 695c67.245 0 125.972-36.405 157.529-90.557 38.556 17.6 98.308 8.853 98.308 8.853l11.703-24.418c-49.267 9.675-82.854.83-99.357-5.853a180.325 180.325 0 009.024-27.734c80.955 22.553 130.97 2.335 130.97 2.335l17.737-34.595c-58.11 21.768-137.291 4.503-144.223 2.924.3-4.268.463-8.573.463-12.916 0-4.674-.178-9.305-.524-13.89 154.021 18.364 207.982-52.447 207.982-52.447l-9.725-34.742c-57.917 68.477-175.124 58.011-203.828 54.271" id="logowing" fill="#505050"/>
    <path d="M509.051 668.005c-85.486-1.876-152.864-71.672-152.225-155.951.666-87.926 74.011-157.514 161.687-153.766 83.835 3.584 149.067 72.698 148.507 155.662-.592 87.628-72.783 155.52-157.969 154.055zm411.701-251.759c-84.142.002-168.283-.012-252.425.073-2.737.003-4.243-.884-5.726-3.1-20.211-30.217-47.013-52.626-80.544-66.767-34.919-14.726-71.119-18.186-108.096-10.098-47.887 10.472-85.373 36.603-112.862 77.06-1.384 2.037-2.72 2.895-5.241 2.893-83.135-.07-166.269-.056-249.404-.054H100c1.183 1.255 1.785 1.929 2.423 2.565 6.928 6.912 13.937 13.746 20.743 20.776 1.82 1.88 3.631 2.579 6.205 2.577 70.957-.067 141.914-.062 212.871-.062.887 0 1.773.082 2.94.14-.327 1.01-.567 1.762-.814 2.512-2.635 7.978-5.455 15.902-7.803 23.963-.786 2.698-1.74 3.526-4.561 3.521-57.316-.094-114.63-.073-171.946-.075h-3.965c.77.888 1.136 1.367 1.557 1.79 7.367 7.378 14.774 14.716 22.08 22.153 1.403 1.427 2.818 1.966 4.812 1.964 47.793-.05 95.586-.037 143.379-.034h3.308v30.15H212.646l-.51.966c.763.51 1.633.911 2.272 1.545 6.82 6.76 13.673 13.487 20.352 20.383 1.987 2.051 3.972 2.954 6.893 2.943 30.397-.11 60.795-.049 91.192-.111 2.12-.004 2.864.659 3.483 2.73 2.43 8.135 5.176 16.176 7.82 24.247.3.913.694 1.796 1.27 3.267h-77.295c.896 1.005 1.293 1.498 1.739 1.942 7.248 7.232 14.54 14.423 21.727 21.716 1.454 1.476 2.916 2.124 5.009 2.116 19.959-.07 39.918-.014 59.878-.09 1.974-.008 3.117.61 4.219 2.237 29.792 43.98 70.75 70.823 123.31 79.536 26.78 4.438 53.303 2.65 79.272-5.2 41.672-12.598 74.67-37.109 99.035-73.127 1.74-2.572 3.545-3.494 6.618-3.472 19.5.14 39.003.113 58.504-.008 1.525-.009 3.412-.768 4.504-1.824 7.425-7.178 14.685-14.526 21.986-21.831.523-.523.947-1.143 1.89-2.297H678.69c.338-1.06.55-1.743.774-2.422 2.685-8.15 5.537-16.251 7.96-24.478.723-2.452 1.664-3.059 4.07-3.052 30.58.08 61.161.035 91.741.092 1.98.004 3.446-.49 4.85-1.911 7.453-7.541 14.991-15 22.483-22.502.322-.323.476-.814.933-1.622H692.618v-29.922h3.473c47.61-.002 95.22-.017 142.83.029 2.255.002 3.902-.587 5.524-2.249 7.084-7.262 14.325-14.372 21.498-21.548.53-.53.97-1.151 1.767-2.107h-3.018c-12.36.002-24.72.005-37.08.005-45.322.001-90.643-.02-135.965.053-2.501.003-3.52-.576-4.272-3.184-2.352-8.153-5.193-16.165-7.844-24.231l-.894-2.715h3.149c24.08.008 48.159.023 72.239.024 46.969.004 93.938-.012 140.907.04 2.27.003 3.89-.617 5.508-2.278 7.016-7.203 14.193-14.25 21.303-21.362.598-.598 1.134-1.258 2.045-2.275h-3.036z" id="logo2" fill="#000"/>
    
    <path id="backgroundb1" stroke="#979797" fill="#000" d="M.5.5h1023v1023H.5z"/>
    
    <path d="M512 338c96.098 0 174 77.903 174 174s-77.902 174-174 174-174-77.903-174-174 77.902-174 174-174zm0 26.117c-81.674 0-147.884 66.21-147.884 147.884 0 81.673 66.21 147.883 147.884 147.883 81.674 0 147.884-66.21 147.884-147.883 0-81.675-66.21-147.884-147.884-147.884z" id="wheel-inner" fill="#FFF"/>
    <path d="M512.313 812.82C346 812.82 211.18 677.998 211.18 511.687c0-166.31 134.821-301.133 301.133-301.133 166.31 0 301.132 134.822 301.132 301.133 0 166.311-134.821 301.133-301.132 301.133m0-655.446C316.632 157.374 158 316.006 158 511.687 158 707.37 316.632 866 512.313 866c195.681 0 354.312-158.63 354.312-354.313 0-195.681-158.63-354.313-354.312-354.313" id="wheel-outer" fill="#FFF"/>
    <path d="M551.64 814.558v-43.59c0-23.954-19.598-43.551-43.55-43.551-23.954 0-43.552 19.597-43.552 43.55v42.383C333.63 792.784 230.328 689.054 210.41 557.93h44.39c23.953 0 43.55-19.598 43.55-43.55 0-23.953-19.597-43.551-43.55-43.551h-45.154C229.616 321.493 357.509 206.31 512.31 206.31c155.445 0 283.763 116.142 302.913 266.383h-47.24c-23.954 0-43.552 19.597-43.552 43.55 0 23.954 19.598 43.552 43.551 43.552h45.935c-21.052 133.042-128.012 237.5-262.277 254.763M512.31 152.38C313.868 152.38 153 313.25 153 511.69S313.868 871 512.31 871s359.31-160.869 359.31-359.31-160.868-359.31-359.31-359.31" id="wheel2-outer" fill="#FFF"/>
    
    <g id="wheel2-inner" transform="translate(336 336)">
      <path d="M174 325.884c-81.674 0-147.884-66.21-147.884-147.884 0-81.674 66.21-147.884 147.884-147.884 81.674 0 147.884 66.21 147.884 147.884 0 81.674-66.21 147.884-147.884 147.884M174 4C77.903 4 0 81.902 0 178s77.903 174 174 174c96.098 0 174-77.902 174-174S270.098 4 174 4" id="white2" fill="#FFF"/>
      <path d="M177.635 342.984c-82.848 0-168.512-81.23-168.512-164.077S93.679 12.612 176.526 12.612s168.512 96.75 168.512 179.599c0 82.847-84.556 150.773-167.403 150.773M176.5 0C79.022 0 0 79.021 0 176.5 0 273.978 79.022 353 176.5 353 273.98 353 353 273.978 353 176.5 353 79.02 273.979 0 176.5 0" id="orange2" fill="#F15A24"/>
    </g>
    <circle id="circle1" fill="#FFF" cx="384" cy="404" r="44"/>
    <circle id="circle2" fill="#FFF" cx="511" cy="375" r="59"/>
    <circle id="circle3" fill="#FFF" cx="638" cy="404" r="44"/>
    <g id="speed" transform="translate(320 63)">
      <g id="speed-details">
        <path d="M384.956 192.206c0 106.123-86.03 192.152-192.152 192.152C86.682 384.358.652 298.33.652 192.206.652 86.084 86.682.056 192.804.056c106.122 0 192.152 86.028 192.152 192.15" id="whitespeed" fill="#FFF"/>
        <path d="M359.923 191.761c0 92.792-75.221 168.014-168.013 168.014-92.79 0-168.012-75.222-168.012-168.014 0-92.79 75.222-168.012 168.012-168.012 92.792 0 168.013 75.222 168.013 168.012z" id="speed-stroke-1" stroke="#000" stroke-width="3"/>
        <path d="M383.157 191.761c0 105.624-85.624 191.248-191.247 191.248C86.29 383.01.665 297.385.665 191.761.665 86.138 86.289.514 191.91.514c105.623 0 191.247 85.624 191.247 191.247z" id="speed-stroke3" stroke="#000" stroke-width="7"/>
        <path d="M368.815 191.761c0 97.703-79.202 176.906-176.904 176.906-97.703 0-176.907-79.203-176.907-176.906 0-97.702 79.204-176.905 176.907-176.905 97.702 0 176.904 79.203 176.904 176.905z" id="speed-stroke2" stroke="#000" stroke-width="3"/>
        <g id="speed-ticks" transform="translate(24.796 24.122)" stroke="#000" stroke-width="4">
          <path id="Stroke-9" d="M136.815 2.23l3.717 23.423"/>
          <path id="Stroke-11" d="M216.003 30.485l7.065-19.704"/>
          <path id="Stroke-13" d="M275.86 74.355l18.217-14.87"/>
          <path id="Stroke-15" d="M308.205 140.532l23.794-3.717"/>
          <path id="Stroke-17" d="M301.514 214.145l23.049 8.179"/>
          <path id="Stroke-19" d="M324.935 179.941l8.923.372"/>
          <path id="Stroke-21" d="M308.949 98.521l8.551-3.718"/>
          <path id="Stroke-23" d="M255.412 37.178l5.578-7.063"/>
          <path id="Stroke-25" d="M180.685 9.294L181.428 0"/>
          <path id="Stroke-27" d="M99.265 24.909l-3.718-7.436"/>
          <path id="Stroke-29" d="M74.727 58.741L59.485 39.78"/>
          <path id="Stroke-31" d="M38.664 77.701l-7.807-4.833"/>
          <path id="Stroke-33" d="M32.716 118.969l-23.422-8.922"/>
          <path id="Stroke-35" d="M12.268 146.853L.742 144.994"/>
          <path id="Stroke-37" d="M25.653 179.198L0 181.429"/>
          <path id="Stroke-39" d="M33.46 214.889l-24.166 9.294"/>
        </g>
        <g id="numbers" transform="translate(50.984 48.876)" fill="#000" font-family="MyriadPro-Semibold, Myriad Pro" font-weight="500">
          <text id="70" transform="rotate(-11 121.697 20.2)" font-size="27">
            <tspan x="103.697" y="24">70</tspan>
          </text>
          <text id="50" transform="rotate(-40 63.221 47.412)" font-size="27">
            <tspan x="45.221" y="51.212">50</tspan>
          </text>
          <text id="30" transform="rotate(-70 23.83 95.893)" font-size="27.497">
            <tspan x="4.33" y="100.393">30</tspan>
          </text>
          <text id="10" transform="rotate(-94 18.5 147.713)" font-size="27">
            <tspan x="-2" y="151.513">10</tspan>
          </text>
          <text id="90" transform="rotate(26 186.01 23.324)" font-size="27">
            <tspan x="167.01" y="27.124">90</tspan>
          </text>
          <text id="110" transform="rotate(56 237.016 63.324)" font-size="27">
            <tspan x="210.016" y="67.124">110</tspan>
          </text>
          <text id="130" transform="rotate(84 264.205 122.44)" font-size="27">
            <tspan x="237.205" y="126.24">130</tspan>
          </text>
          <text id="150" transform="rotate(106 260.52 183.12)" font-size="27.254">
            <tspan x="231.52" y="187.119">150</tspan>
          </text>
        </g>
        <g id="speed-bottom-details" transform="translate(86.516 286.922)">
          <path id="Stroke-42" stroke="#000" stroke-width="3" d="M0 3.232l3.056 10.149"/>
          <path id="Stroke-44" stroke="#000" stroke-width="3" d="M26.159.932l-.468 10.25"/>
          <path id="Stroke-46" stroke="#000" stroke-width="3" d="M53.28 10.717l-6.312 8.853"/>
          <path id="Stroke-48" stroke="#000" stroke-width="3" d="M64.738 35.179l8.651-4.426"/>
          <path id="Stroke-50" stroke="#000" stroke-width="3" d="M71.286 56.382l10.287-1.399"/>
          <path id="Stroke-52" stroke="#000" stroke-width="3" d="M125.297 54.75l11.69 2.097"/>
          <path id="Stroke-54" stroke="#000" stroke-width="3" d="M134.415 30.987l8.886 4.427"/>
          <path id="Stroke-56" stroke="#000" stroke-width="3" d="M153.589 9.784l6.312 9.087"/>
          <path id="Stroke-58" stroke="#000" stroke-width="3" d="M180.01 0l.936 11.182"/>
          <path id="Stroke-60" stroke="#000" stroke-width="3" d="M207.834 1.863l-2.805 11.417"/>
          <path d="M41.101 33.33c0 3.486-2.834 6.312-6.332 6.312-3.498 0-6.333-2.826-6.333-6.311 0-3.484 2.835-6.31 6.333-6.31s6.332 2.826 6.332 6.31" id="random-circle1" fill="#000"/>
          <path d="M178.681 33.59c0 3.486-2.835 6.312-6.332 6.312-3.498 0-6.332-2.826-6.332-6.311 0-3.486 2.834-6.311 6.332-6.311 3.497 0 6.332 2.825 6.332 6.31" id="random-circle2" fill="#000"/>
        </g>
        <text id="MPH-km/h" font-family="MyriadPro-Semibold, Myriad Pro" font-size="12" font-weight="500" fill="#000">
          <tspan x="46" y="257">MPH </tspan> <tspan x="73.18" y="257" letter-spacing=".156">k</tspan> <tspan x="79.6" y="257">m/h</tspan>
        </text>
      </g>
      <g id="speed-working">
        <g id="spinner" transform="translate(.652 .055)">
          <path d="M223.913 173.813c-3.418-2.769-15.45-.957-17.908-.551-4.09-3.875-9.61-6.266-15.698-6.266-12 0-21.814 9.236-22.721 20.96a2083.03 2083.03 0 01-3.342 11.67L66.51 236.335s-4.148 4.134 1.66 2.757c5.36-1.272 86.263-31.166 98.689-35.762 1.212.014 2.633.167 3.988 1.232 2.117 1.666 4.768 3.087 6.766 4.046a22.759 22.759 0 0012.694 3.846c12.597 0 22.81-10.177 22.81-22.73 0-.025-.004-.05-.004-.074 2.991-3.72 8.196-5.702 9.61-7.285 1.906-2.137 5.005-5.463 1.19-8.551" id="spin" fill="#000"/>
          <path d="M384.304 192.15c0 106.124-86.03 192.153-192.152 192.153C86.03 384.303 0 298.274 0 192.151 0 86.029 86.03 0 192.152 0c106.122 0 192.152 86.029 192.152 192.15" id="backspin"/>
          <path d="M198.9 174.078c-1.408-.468-6.78-1.943-9.664-2.729a12.183 12.183 0 00-1.671-.454l-.189-.05.01.022c-.699-.123-1.414-.199-2.148-.199-6.746 0-12.212 5.447-12.212 12.167 0 6.721 5.466 12.169 12.212 12.169 4.273 0 8.028-2.192 10.21-5.502l.044.102s4.707-7.603 5.193-9.542c.487-1.94.163-5.338-1.785-5.984" id="spin2" fill="#FFF"/>
        </g>
        <path d="M96.624 213.95c0 2.153-1.751 3.9-3.913 3.9a3.908 3.908 0 01-3.915-3.9 3.907 3.907 0 013.915-3.9 3.905 3.905 0 013.913 3.9" id="scolor-1" fill="#000"/>
        <path d="M94.476 188.206a3.907 3.907 0 01-3.914 3.899 3.907 3.907 0 01-3.914-3.9c0-2.153 1.753-3.9 3.914-3.9a3.907 3.907 0 013.914 3.9" id="scolor-2" fill="#000"/>
        <path d="M97.38 164.306c0 2.154-1.753 3.9-3.915 3.9a3.907 3.907 0 01-3.914-3.9 3.906 3.906 0 013.914-3.898 3.906 3.906 0 013.914 3.898" id="scolor-3" fill="#000"/>
        <path d="M107.292 141.965a3.924 3.924 0 01-5.535-.094 3.889 3.889 0 01.095-5.513 3.923 3.923 0 015.533.093 3.89 3.89 0 01-.093 5.514" id="scolor-4" fill="#000"/>
        <path d="M122.364 122.468a3.923 3.923 0 01-5.533-.093 3.89 3.89 0 01.093-5.515 3.924 3.924 0 015.535.093 3.89 3.89 0 01-.095 5.515" id="scolor-5" fill="#000"/>
        <path d="M143.724 106.957a3.923 3.923 0 01-5.533-.094 3.889 3.889 0 01.093-5.514 3.924 3.924 0 015.535.093 3.89 3.89 0 01-.095 5.515" id="scolor-6" fill="#000"/>
        <path d="M167.242 97.77a3.907 3.907 0 01-3.883-3.93 3.908 3.908 0 013.944-3.87 3.908 3.908 0 013.884 3.93 3.907 3.907 0 01-3.945 3.87" id="scolor-7" fill="#000"/>
        <path d="M193.094 95.83a3.907 3.907 0 01-3.883-3.93 3.908 3.908 0 013.943-3.87 3.907 3.907 0 013.883 3.93 3.908 3.908 0 01-3.943 3.87" id="s-8" fill="#000"/>
        <path d="M217.055 98.907a3.907 3.907 0 01-3.884-3.93 3.908 3.908 0 013.945-3.87 3.908 3.908 0 013.883 3.93 3.907 3.907 0 01-3.944 3.87" id="s-9" fill="#000"/>
        <path d="M239.399 108.958a3.89 3.89 0 01.137-5.513 3.924 3.924 0 015.533.135 3.891 3.891 0 01-.137 5.515 3.923 3.923 0 01-5.533-.137" id="s-10" fill="#000"/>
        <path d="M258.848 124.128a3.89 3.89 0 01.138-5.514 3.923 3.923 0 015.532.137 3.89 3.89 0 01-.137 5.513 3.923 3.923 0 01-5.533-.136" id="s-11" fill="#000"/>
        <path d="M274.248 145.53a3.888 3.888 0 01.139-5.511 3.924 3.924 0 015.533.135 3.892 3.892 0 01-.138 5.515 3.923 3.923 0 01-5.534-.138" id="s-12" fill="#000"/>
        <path d="M282.925 166.451a3.906 3.906 0 013.996-3.815 3.906 3.906 0 013.83 3.982 3.907 3.907 0 01-3.999 3.815 3.905 3.905 0 01-3.827-3.982" id="s-13" fill="#000"/>
        <path d="M285.992 190.87a3.907 3.907 0 013.996-3.814 3.906 3.906 0 013.829 3.983 3.908 3.908 0 01-3.998 3.815 3.906 3.906 0 01-3.827-3.983" id="s-14" fill="#000"/>
        <path d="M281.777 216.87a3.906 3.906 0 013.997-3.814 3.905 3.905 0 013.829 3.983 3.907 3.907 0 01-3.997 3.815 3.906 3.906 0 01-3.829-3.984" id="s-15" fill="#000"/>
      </g>
    </g>
    <g id="gas" transform="translate(53 344)">
      <g id="gas-details">
        <path d="M310.683 155.442c0 85.78-69.485 155.318-155.2 155.318C69.772 310.76.287 241.222.287 155.442.286 69.662 69.771.124 155.484.124c85.714 0 155.2 69.538 155.2 155.318" id="whitegas" fill="#FFF"/>
        <path d="M285.463 155.889c0 71.427-57.859 129.33-129.231 129.33-71.37 0-129.231-57.903-129.231-129.33 0-71.429 57.86-129.33 129.231-129.33 71.372 0 129.231 57.901 129.231 129.33z" id="gas-stroke1" stroke="#000" stroke-width="2"/>
        <path d="M295.915 155.889c0 77.204-62.538 139.79-139.683 139.79-77.143 0-139.683-62.586-139.683-139.79 0-77.206 62.54-139.792 139.683-139.792 77.145 0 139.683 62.586 139.683 139.792z" id="gas-stroke2" stroke="#000" stroke-width="3"/>
        <path d="M311.894 155.889c0 86.036-69.692 155.78-155.66 155.78C70.263 311.669.57 241.925.57 155.889.57 69.85 70.263.107 156.233.107c85.969 0 155.661 69.744 155.661 155.782z" id="gas-stroke3" stroke="#000" stroke-width="8"/>
      </g>
      <text id="E" font-family="MyriadPro-Semibold, Myriad Pro" font-size="27" font-weight="500" fill="#000">
        <tspan x="58" y="191">E</tspan>
      </text>
      <text id="F" font-family="MyriadPro-Semibold, Myriad Pro" font-size="27" font-weight="500" fill="#000">
        <tspan x="242" y="195">F</tspan>
      </text>
      <g id="gas-circles" transform="translate(34 38)" fill="#000">
        <path d="M117.917 102.323c4.548 0 9.098-.025 13.645.014 1.443.013 2.101-.525 2.095-2.018-.033-6.823-.035-13.647-.002-20.47.008-1.48-.628-2.058-2.073-2.055-9.096.019-18.194.019-27.29-.01-1.502-.002-2.207.567-2.2 2.128.034 6.77.032 13.538 0 20.306-.007 1.544.645 2.14 2.18 2.124 4.549-.05 9.097-.019 13.645-.019m21.298 6.608v1.705c.001 12.35.001 24.697.003 37.044 0 2.31.04 2.389 2.343 2.542 1.428.097 1.987.714 1.977 2.18-.023 3.845.03 3.845-3.9 3.845-14.974 0-29.949.012-44.922-.036-.898-.003-2.467-.343-2.565-.784-.319-1.431-.182-2.99-.017-4.477.033-.287.97-.613 1.522-.68 2.472-.289 2.477-.259 2.477-2.763-.002-23.112.045-46.224-.054-69.334-.016-3.497 1.66-6.219 6.211-6.14 10.364.178 20.734.054 31.101.06 4.055.004 5.822 1.756 5.824 5.75l.001 23.438v1.94c.91.116 1.76.213 2.604.333 4.693.668 8.26 4.62 8.294 9.344.052 6.938-.003 13.878.028 20.816.02 4.089 2.337 6.922 6.204 7.715 4.727.968 9.417-3.754 8.37-8.455-1.617-7.282-3.403-14.53-4.833-21.848-.89-4.54-1.23-9.183-1.853-13.776-.885-6.508-3.836-11.997-8.4-16.666-1.146-1.175-2.382-2.264-3.49-3.472-.45-.486-.885-1.16-.957-1.79-.374-3.294.524-3.965 3.562-2.793 9.13 3.52 14.543 10.512 18.098 19.232.475 1.16.847 2.36 1.324 3.521.498 1.211.264 1.857-1.126 2.23-3.475.932-3.402.987-2.998 4.519 1.106 9.663 3.083 19.14 5.778 28.488 2.095 7.268-2 14.186-9.308 16.043-6.851 1.738-13.843-2.569-15.519-9.65-.308-1.308-.284-2.712-.29-4.073-.029-6.337.008-12.674-.022-19.013-.016-3.437-1.9-5.214-5.467-4.995" id="gas-symbol"/>
        <path d="M11.68 147.734c-.023 2.544-2.112 4.587-4.666 4.563-2.553-.025-4.603-2.105-4.58-4.649.024-2.542 2.113-4.584 4.667-4.562 2.553.025 4.605 2.106 4.58 4.648" id="gas-color1"/>
        <path d="M9.427 117.312c-.025 2.543-2.113 4.586-4.667 4.563-2.552-.025-4.603-2.106-4.58-4.65.024-2.542 2.114-4.585 4.666-4.561 2.554.023 4.605 2.105 4.581 4.648" id="gas-color2"/>
        <path d="M13.12 89.123c-.024 2.543-2.115 4.586-4.667 4.563-2.554-.025-4.603-2.106-4.581-4.65.025-2.541 2.114-4.585 4.668-4.561 2.552.023 4.604 2.106 4.58 4.648" id="gas-color3"/>
        <path d="M25.074 62.85a4.637 4.637 0 01-6.535-.171 4.592 4.592 0 01.172-6.51 4.633 4.633 0 016.535.171 4.59 4.59 0 01-.172 6.51" id="gas-color4"/>
        <path d="M43.094 39.992a4.635 4.635 0 01-6.535-.17 4.594 4.594 0 01.171-6.511 4.634 4.634 0 016.535.172 4.589 4.589 0 01-.171 6.509" id="gas-color5"/>
        <path d="M68.497 21.91a4.639 4.639 0 01-6.537-.172 4.595 4.595 0 01.171-6.51 4.634 4.634 0 016.537.171 4.59 4.59 0 01-.171 6.511" id="gas-color6"/>
        <path d="M96.378 11.319c-2.554-.042-4.588-2.14-4.545-4.682.044-2.544 2.15-4.57 4.702-4.528 2.553.044 4.587 2.14 4.543 4.682-.042 2.544-2.148 4.57-4.7 4.528" id="gas-color7"/>
        <path d="M126.937 9.31a4.614 4.614 0 01-4.545-4.684c.044-2.542 2.15-4.57 4.702-4.526 2.553.044 4.587 2.14 4.543 4.683-.042 2.543-2.148 4.569-4.7 4.527" id="gas-color8"/>
        <path d="M155.206 13.206c-2.552-.043-4.588-2.139-4.544-4.683.044-2.543 2.15-4.57 4.703-4.527 2.553.046 4.585 2.14 4.543 4.684-.044 2.542-2.148 4.57-4.702 4.526" id="gas-9"/>
        <path d="M181.49 25.318a4.594 4.594 0 01.222-6.509 4.638 4.638 0 016.535.22 4.596 4.596 0 01-.223 6.512 4.636 4.636 0 01-6.535-.223" id="gas-10"/>
        <path d="M204.297 43.445a4.591 4.591 0 01.223-6.51 4.636 4.636 0 016.533.22 4.593 4.593 0 01-.223 6.512 4.637 4.637 0 01-6.533-.222" id="gas-11"/>
        <path d="M222.253 68.887a4.591 4.591 0 01.223-6.51 4.636 4.636 0 016.534.221 4.593 4.593 0 01-.223 6.51 4.637 4.637 0 01-6.534-.221" id="gas-12"/>
        <path d="M232.27 93.683c.08-2.542 2.211-4.538 4.763-4.462 2.553.078 4.56 2.204 4.481 4.746a4.615 4.615 0 01-4.763 4.46c-2.552-.078-4.56-2.202-4.48-4.744" id="gas-13"/>
        <path d="M235.624 122.553c.079-2.542 2.211-4.538 4.764-4.461 2.552.078 4.557 2.204 4.479 4.746-.079 2.542-2.212 4.538-4.764 4.46-2.552-.078-4.557-2.203-4.479-4.745" id="gas-14"/>
        <path d="M230.36 153.208c.08-2.542 2.21-4.538 4.762-4.462 2.552.078 4.56 2.204 4.481 4.746a4.615 4.615 0 01-4.763 4.46c-2.552-.078-4.56-2.202-4.48-4.744" id="gas-15"/>
      </g>
    </g>
    <g id="gear" transform="translate(661 337)">
      <g id="gear-details">
        <path d="M318.171 160.031c0 87.791-71.169 158.96-158.96 158.96C71.422 318.99.255 247.822.255 160.03c0-87.79 71.167-158.96 158.956-158.96 87.791 0 158.96 71.17 158.96 158.96" id="whitegear" fill="#FFF"/>
        <path d="M291.795 159.567c0 73.101-59.26 132.362-132.362 132.362-73.1 0-132.361-59.261-132.361-132.362 0-73.102 59.26-132.363 132.36-132.363 73.102 0 132.363 59.261 132.363 132.363z" id="gear-stroke-1" stroke="#000" stroke-width="2"/>
        <path d="M318.867 159.567c0 88.053-71.381 159.432-159.433 159.432C71.381 318.999 0 247.619 0 159.567 0 71.513 71.381.133 159.434.133c88.052 0 159.433 71.38 159.433 159.434z" id="gear-stroke-2" stroke="#000" stroke-width="8"/>
        <path d="M302.5 159.567c0 79.014-64.053 143.067-143.067 143.067-79.012 0-143.066-64.053-143.066-143.067 0-79.015 64.054-143.068 143.066-143.068 79.014 0 143.068 64.053 143.068 143.068z" id="gear-stroke-3" stroke="#000" stroke-width="3"/>
        <path d="M213.95 183.78h-30.681v-2.806h29.862c3.15 0 5.728-2.58 5.728-5.728v-18.062c0-3.148-2.577-5.727-5.728-5.727H183.27v-2.807h29.044c3.15 0 5.726-2.576 5.726-5.726v-18.063c0-3.148-2.576-5.724-5.726-5.724h-29.044V72.714c0-5.707-4.667-10.375-10.372-10.375h-48.695c-5.704 0-10.373 4.668-10.373 10.375v172.282c0 5.704 4.67 10.374 10.373 10.374h48.695c5.705 0 10.372-4.67 10.372-10.374v-31.702h30.68c3.151 0 5.729-2.576 5.729-5.727v-18.06c0-3.15-2.578-5.727-5.728-5.727" id="gear" fill="#000"/>
      </g>
      <text id="P" font-family="MyriadPro-Semibold, Myriad Pro" font-size="25" font-weight="500" letter-spacing=".125" fill="#000">
        <tspan x="192" y="112">P</tspan>
      </text>
      <text id="L" font-family="MyriadPro-Semibold, Myriad Pro" font-size="25" font-weight="500" letter-spacing=".125" fill="#000">
        <tspan x="193" y="238">L</tspan>
      </text>
      <text id="R" font-family="MyriadPro-Semibold, Myriad Pro" font-size="25" font-weight="500" letter-spacing=".132" fill="#FFF">
        <tspan x="190" y="142">R</tspan>
      </text>
      <text id="N" font-family="MyriadPro-Semibold, Myriad Pro" font-size="25" font-weight="500" letter-spacing=".132" fill="#FFF">
        <tspan x="192" y="174">N</tspan>
      </text>
      <text id="D" font-family="MyriadPro-Semibold, Myriad Pro" font-size="25" font-weight="500" letter-spacing=".132" fill="#FFF">
        <tspan x="192" y="206">D</tspan>
      </text>
      <path d="M161.805 113h-23.61c-3.957 0-7.195-3.255-7.195-7.233V90.235c0-3.98 3.238-7.235 7.195-7.235h23.61c3.958 0 7.195 3.255 7.195 7.235v15.532c0 3.978-3.237 7.233-7.195 7.233" id="gearsquare" fill="#FFF"/>
    </g>
  </g>
</svg>
