<svg viewBox="0 0 1024 1024" xmlns="http://www.w3.org/2000/svg" xmlns:xlink="http://www.w3.org/1999/xlink">
  <defs>
    <path id="path-1" d="M0 .987h111.96V60H0z"/>
  </defs>
  <g id="Desktop" stroke="none" stroke-width="1" fill="none" fill-rule="evenodd">
    <path fill="#BCAEAE" d="M0 0h1024v1024H0z"/>
    <path id="backgroundw1" stroke="#979797" fill="#FFF" d="M.5.5h1023v1023H.5z"/>
    <g id="minitype" transform="translate(388 472)" fill="#000">
      <path d="M86.544.035c-6.202.072-12.409.12-18.61-.014-2.094-.045-3.036.642-3.659 2.657-4.718 15.27-9.543 30.507-14.352 45.75-1.66 5.266-3.368 10.518-5.055 15.776-.93-1.07-1.334-2.134-1.68-3.217-6.215-19.502-12.442-39-18.596-58.52C24.04.715 23.299-.02 21.366.021 15.347.152 9.32.206 3.304.006.604-.084-.009.824 0 3.409c.093 25.074.058 50.149.06 75.224v3.1h16.078V23.17c.64.457.867.938 1.028 1.44 5.864 18.272 11.75 36.536 17.537 54.832.591 1.87 1.388 2.62 3.395 2.544 4.1-.157 8.218-.202 12.313.004 2.338.118 3.33-.719 4.007-2.908C59.82 61.62 65.33 44.193 70.815 26.758c.367-1.167.796-2.314 1.196-3.471l.61.126v58.404h16.133c.09-.772.207-1.3.207-1.828.008-25.898-.01-51.797.039-77.695.003-1.908-.779-2.279-2.456-2.259" id="Fill-4"/>
      <path d="M208.907.024c-3.373.19-6.775.22-10.144-.001-2.574-.17-3.22.715-3.204 3.209.103 17.238.055 34.476.057 51.715v2.903c-1.07-.706-1.64-1.58-2.142-2.492-9.724-17.65-19.468-35.288-29.114-52.98-.98-1.794-2.117-2.396-4.092-2.342-4.66.126-9.335.207-13.987-.024-2.753-.137-3.292.864-3.281 3.402.092 22.254.054 44.51.054 66.764 0 3.101-.089 6.206.058 9.3.036.759.818 2.108 1.291 2.123 4.896.157 9.798.097 14.888.097V24.455c.2-.06.4-.12.6-.178.293.42.628.817.874 1.263 8.645 15.643 17.274 31.295 25.928 46.932 1.673 3.024 2.766 7.077 5.356 8.682 2.468 1.529 6.541.51 9.91.553 3.25.042 6.5.01 9.985.01v-4.778c0-24.626-.036-49.253.056-73.878.009-2.452-.704-3.171-3.093-3.037" id="Fill-6"/>
      <path d="M111.27.01c-2.475-.104-3.28.542-3.27 3.16.099 25.341.054 50.682.06 76.022 0 .963.104 1.926.156 2.808H125V.064c-4.767 0-9.255.135-13.73-.054" id="Fill-8"/>
      <path d="M231 2.838c.064 25.43.037 50.862.042 76.293 0 .893.082 1.786.135 2.869h16.543c.112-.53.216-.797.217-1.064.018-26.256.017-52.513.063-78.77.003-1.753-.73-2.177-2.306-2.146-3.996.08-8 .16-11.99-.012-2.23-.096-2.71.712-2.704 2.83" id="Fill-10"/>
    </g>
    <path d="M509.051 668.005c-85.486-1.876-152.864-71.672-152.225-155.951.666-87.926 74.011-157.514 161.687-153.766 83.835 3.584 149.067 72.698 148.507 155.662-.592 87.628-72.783 155.52-157.969 154.055zm411.701-251.759c-84.142.002-168.283-.012-252.425.073-2.737.003-4.243-.884-5.726-3.1-20.211-30.217-47.013-52.626-80.544-66.767-34.919-14.726-71.119-18.186-108.096-10.098-47.887 10.472-85.373 36.603-112.862 77.06-1.384 2.037-2.72 2.895-5.241 2.893-83.135-.07-166.269-.056-249.404-.054H100c1.183 1.255 1.785 1.929 2.423 2.565 6.928 6.912 13.937 13.746 20.743 20.776 1.82 1.88 3.631 2.579 6.205 2.577 70.957-.067 141.914-.062 212.871-.062.887 0 1.773.082 2.94.14-.327 1.01-.567 1.762-.814 2.512-2.635 7.978-5.455 15.902-7.803 23.963-.786 2.698-1.74 3.526-4.561 3.521-57.316-.094-114.63-.073-171.946-.075h-3.965c.77.888 1.136 1.367 1.557 1.79 7.367 7.378 14.774 14.716 22.08 22.153 1.403 1.427 2.818 1.966 4.812 1.964 47.793-.05 95.586-.037 143.379-.034h3.308v30.15H212.646l-.51.966c.763.51 1.633.911 2.272 1.545 6.82 6.76 13.673 13.487 20.352 20.383 1.987 2.051 3.972 2.954 6.893 2.943 30.397-.11 60.795-.049 91.192-.111 2.12-.004 2.864.659 3.483 2.73 2.43 8.135 5.176 16.176 7.82 24.247.3.913.694 1.796 1.27 3.267h-77.295c.896 1.005 1.293 1.498 1.739 1.942 7.248 7.232 14.54 14.423 21.727 21.716 1.454 1.476 2.916 2.124 5.009 2.116 19.959-.07 39.918-.014 59.878-.09 1.974-.008 3.117.61 4.219 2.237 29.792 43.98 70.75 70.823 123.31 79.536 26.78 4.438 53.303 2.65 79.272-5.2 41.672-12.598 74.67-37.109 99.035-73.127 1.74-2.572 3.545-3.494 6.618-3.472 19.5.14 39.003.113 58.504-.008 1.525-.009 3.412-.768 4.504-1.824 7.425-7.178 14.685-14.526 21.986-21.831.523-.523.947-1.143 1.89-2.297H678.69c.338-1.06.55-1.743.774-2.422 2.685-8.15 5.537-16.251 7.96-24.478.723-2.452 1.664-3.059 4.07-3.052 30.58.08 61.161.035 91.741.092 1.98.004 3.446-.49 4.85-1.911 7.453-7.541 14.991-15 22.483-22.502.322-.323.476-.814.933-1.622H692.618v-29.922h3.473c47.61-.002 95.22-.017 142.83.029 2.255.002 3.902-.587 5.524-2.249 7.084-7.262 14.325-14.372 21.498-21.548.53-.53.97-1.151 1.767-2.107h-3.018c-12.36.002-24.72.005-37.08.005-45.322.001-90.643-.02-135.965.053-2.501.003-3.52-.576-4.272-3.184-2.352-8.153-5.193-16.165-7.844-24.231l-.894-2.715h3.149c24.08.008 48.159.023 72.239.024 46.969.004 93.938-.012 140.907.04 2.27.003 3.89-.617 5.508-2.278 7.016-7.203 14.193-14.25 21.303-21.362.598-.598 1.134-1.258 2.045-2.275h-3.036z" 
    id="logo" fill="#000"/>
    <path d="M508.458 667.168c-85.31-1.865-152.547-71.3-151.91-155.141.664-87.471 73.857-156.697 161.352-152.968 83.661 3.564 148.758 72.32 148.198 154.855-.588 87.173-72.632 154.713-157.64 153.254zm357.917-194.82c-1.381 0 17.04-17.737 16.236-17.598-43.873 7.56-61.533 11.512-104.058 15.105-44.62 3.769-42.648 2.48-87.88 2.55-2.492.006-3.51-.572-4.263-3.167-2.345-8.11-5.179-16.08-7.825-24.105-.267-.81-.534-1.618-.893-2.7h3.144c24.03.008 48.06.022 72.09.025 46.871.003 78.664-3.2 148.309-17.814l6.014-14.4L925 365.17c-85.59 32.268-173.63 51.533-257.597 51.618-2.732.003-4.232-.881-5.713-3.086-20.17-30.058-46.917-52.352-80.375-66.417-34.849-14.653-70.973-18.092-107.873-10.048-47.79 10.419-85.199 36.413-112.631 76.66-1.381 2.027-2.715 2.88-5.23 2.88C272.619 416.707 155.776 395.61 91 366.15l14.474 38.675 9.908 20.047c2.229 2.845 53.046 11.04 70.532 11.912 70.725 3.525 85.27 5.659 156.08 5.659.884 0 1.768.082 2.934.141-1.208 3.712-1.231 3.922-4.779 13.457-1.426 3.842-2.563 7.8-3.53 11.782-.867 3.561-1.674 4.604-4.843 4.601-57.195-.093-157.51-11.39-192.023-18.228l16.478 18.152 13.214 13.43c3.77 2.55 3.383 4.928 16.651 7.52 46.803 9.15 93.91 4.787 141.606 4.79h3.3v29.992L201.04 511.372l12.063 14.42 17.287 19.126c30.954 7.393 71.894 8.818 102.225 8.756 2.118-.006 2.86.657 3.476 2.714 2.428 8.096 5.168 16.095 7.806 24.122.298.91.693 1.788 1.267 3.25l-91.551-14.82c1.009 1.126 15.801 16.43 16.327 16.925 7.27 6.798 3.291 2.893 9.977 10.266 1.572 1.732 8.786 6.523 10.986 7.019 14.93 3.372 45.379 6.236 65.296 6.16a5.096 5.096 0 014.22 2.241c29.54 43.464 70.072 70.096 122.031 78.94 25.574 4.352 51.69 3.057 76.65-3.993 43.23-12.201 77.316-36.935 102.304-73.757 1.736-2.558 3.536-3.48 6.602-3.457 19.463.142 34.465-.654 53.694-3.652 5.685-.884 14.772-3.426 15.81-4.423 7.404-7.138 8.035-8.2 15.317-15.463.517-.521 11.549-14.754 12.493-15.901l-87.573 13.618c1.174-3.678.825-2.783 4.756-13.108 1.535-4.03 2.694-8.203 3.641-12.408.787-3.488 1.612-4.29 4.38-4.285 30.516.083 46.033.777 94.963-5.797 1.873-.25 6.276-2.953 7.606-4.296 7.373-7.438 9.57-10.54 16.983-17.941.324-.32 10.006-11.561 10.46-12.366l-128.89 14.593v-29.766h3.466c47.51 0 83.96.626 142.098-5.988 3.027-.345 13.22-3.587 15.483-6.93l13.683-12.822z" 
    id="logowing1" fill="#000"/>
    <path d="M507.505 667.08c-85.392-1.871-152.695-71.543-152.058-155.67.666-87.768 73.93-157.23 161.51-153.488 83.742 3.577 148.902 72.566 148.342 155.382-.59 87.47-72.703 155.24-157.794 153.776zm363.896-206.761c-1.383 0 13.127-18.768 12.342-18.538-44.948 13.323-91.612 22.404-102.062 23.897-29.098 4.154-46.507 5.905-91.783 5.976-2.495.006-3.514-.574-4.268-3.178-2.347-8.137-5.183-16.135-7.832-24.187l-.894-2.71h3.147c24.053.009 94.48-5.083 136.958-14.69 20.005-4.527 61.18-15.146 95.61-32.74l4.677-23.385L930 324c-86.246 45.431-179.346 91.763-263.395 91.849-2.734.002-4.237-.885-5.72-3.097-20.188-30.16-46.962-52.53-80.452-66.644-34.882-14.702-71.041-18.153-107.978-10.081-47.836 10.454-85.281 36.537-112.74 76.922-1.383 2.032-2.717 2.888-5.235 2.888-83.042-.07-209.644-61.796-274.48-91.36l14.877 50.185 5.662 18.564c2.231 2.854 43.551 22.73 69.588 28.926C239.08 438.557 270 441.59 340.88 441.59c.885 0 1.77.082 2.936.142-1.209 3.724-1.232 3.935-4.782 13.502-1.429 3.855-2.567 7.827-3.534 11.822-.868 3.574-1.676 4.62-4.848 4.617-57.251-.094-161.24-23.268-195.786-30.129l12.229 18.327 14.155 17.36c3.772 2.56 28.224 9.295 41.505 11.897 46.849 9.18 76.077 8.293 123.82 8.296h3.303v30.095l-70.797-11.415-66.657-14.054 14.366 16.94 13.184 15.529c14.363 9.413 81.156 18.742 111.517 18.68 2.12-.006 2.862.659 3.48 2.723 2.43 8.123 5.172 16.15 7.813 24.204.298.913.694 1.794 1.269 3.261l-99.368-24.716c1.01 1.135 13.608 15.36 14.134 15.854 7.278 6.826 5.426 5.288 12.118 12.686 1.573 1.74 23.655 9.8 33.462 12.396 14.812 3.915 30.762 9.494 50.698 9.417a5.097 5.097 0 014.226 2.249c29.567 43.611 70.139 70.334 122.149 79.208 25.598 4.367 51.74 3.068 76.723-4.006 43.272-12.243 77.392-37.06 102.404-74.008 1.738-2.567 3.539-3.491 6.609-3.469 19.48.143 30.95-3.039 50.035-6.94 13.156-2.69 26.173-8.86 27.209-9.863 7.414-7.159 8.265-9.149 15.551-16.433.521-.523 10.42-14.387 11.361-15.538l-94.406 22.865c1.175-3.69.825-2.792 4.76-13.153 1.537-4.043 2.698-8.23 3.645-12.45.788-3.5 1.613-4.305 4.384-4.299 30.546.082 20.585.742 69.389-7.014 14.166-2.252 39.229-8.308 40.558-9.653 7.383-7.463 9.96-13.48 17.384-20.906.321-.324 8.877-10.772 9.332-11.58L690.87 527.292v-29.867h3.469c47.557 0 91.424-4.256 120.405-9.633 21.91-4.063 39.57-6.44 41.835-9.795l14.82-17.678z" 
    id="logowing2" fill="#000"/>
    <path d="M511.5 668C426.172 668 357 598.828 357 513.5S426.172 359 511.5 359 666 428.172 666 513.5 596.828 668 511.5 668m175.86-201.769a180.513 180.513 0 00-6.641-20.162C841.312 453.522 905 356.443 905 356.443l-12.967-47.175c-57.947 110.81-210.824 105.343-228.16 104.352-32.518-49.698-88.7-82.544-152.572-82.544-63.002 0-118.532 31.955-151.24 80.522-33.602.912-168.48-2.074-222.094-104.598L125 354.174s61.946 94.428 217.71 89.877a180.431 180.431 0 00-7.077 20.738c-37.307 3.97-142.827 8.741-196.821-55.097l-9.725 34.742s52.258 68.577 200.71 53.255a184.33 184.33 0 00-.65 15.35c0 4.096.15 8.157.417 12.186-22.314 4.273-87.212 14.105-136.78-4.463l17.738 34.595s46.95 18.98 123.503-.35a180.493 180.493 0 009.25 28.4c-18.196 6.007-49.211 11.628-92.116 3.202l11.703 24.419s52.887 7.738 91.256-6.002C385.755 658.855 444.298 695 511.3 695c67.245 0 125.972-36.405 157.529-90.557 38.556 17.6 98.308 8.853 98.308 8.853l11.703-24.418c-49.267 9.675-82.854.83-99.357-5.853a180.325 180.325 0 009.024-27.734c80.955 22.553 130.97 2.335 130.97 2.335l17.737-34.595c-58.11 21.768-137.291 4.503-144.223 2.924.3-4.268.463-8.573.463-12.916 0-4.674-.178-9.305-.524-13.89 154.021 18.364 207.982-52.447 207.982-52.447l-9.725-34.742c-57.917 68.477-175.124 58.011-203.828 54.271" 
    id="logowing" fill="#505050"/>
    <path d="M509.051 668.005c-85.486-1.876-152.864-71.672-152.225-155.951.666-87.926 74.011-157.514 161.687-153.766 83.835 3.584 149.067 72.698 148.507 155.662-.592 87.628-72.783 155.52-157.969 154.055zm411.701-251.759c-84.142.002-168.283-.012-252.425.073-2.737.003-4.243-.884-5.726-3.1-20.211-30.217-47.013-52.626-80.544-66.767-34.919-14.726-71.119-18.186-108.096-10.098-47.887 10.472-85.373 36.603-112.862 77.06-1.384 2.037-2.72 2.895-5.241 2.893-83.135-.07-166.269-.056-249.404-.054H100c1.183 1.255 1.785 1.929 2.423 2.565 6.928 6.912 13.937 13.746 20.743 20.776 1.82 1.88 3.631 2.579 6.205 2.577 70.957-.067 141.914-.062 212.871-.062.887 0 1.773.082 2.94.14-.327 1.01-.567 1.762-.814 2.512-2.635 7.978-5.455 15.902-7.803 23.963-.786 2.698-1.74 3.526-4.561 3.521-57.316-.094-114.63-.073-171.946-.075h-3.965c.77.888 1.136 1.367 1.557 1.79 7.367 7.378 14.774 14.716 22.08 22.153 1.403 1.427 2.818 1.966 4.812 1.964 47.793-.05 95.586-.037 143.379-.034h3.308v30.15H212.646l-.51.966c.763.51 1.633.911 2.272 1.545 6.82 6.76 13.673 13.487 20.352 20.383 1.987 2.051 3.972 2.954 6.893 2.943 30.397-.11 60.795-.049 91.192-.111 2.12-.004 2.864.659 3.483 2.73 2.43 8.135 5.176 16.176 7.82 24.247.3.913.694 1.796 1.27 3.267h-77.295c.896 1.005 1.293 1.498 1.739 1.942 7.248 7.232 14.54 14.423 21.727 21.716 1.454 1.476 2.916 2.124 5.009 2.116 19.959-.07 39.918-.014 59.878-.09 1.974-.008 3.117.61 4.219 2.237 29.792 43.98 70.75 70.823 123.31 79.536 26.78 4.438 53.303 2.65 79.272-5.2 41.672-12.598 74.67-37.109 99.035-73.127 1.74-2.572 3.545-3.494 6.618-3.472 19.5.14 39.003.113 58.504-.008 1.525-.009 3.412-.768 4.504-1.824 7.425-7.178 14.685-14.526 21.986-21.831.523-.523.947-1.143 1.89-2.297H678.69c.338-1.06.55-1.743.774-2.422 2.685-8.15 5.537-16.251 7.96-24.478.723-2.452 1.664-3.059 4.07-3.052 30.58.08 61.161.035 91.741.092 1.98.004 3.446-.49 4.85-1.911 7.453-7.541 14.991-15 22.483-22.502.322-.323.476-.814.933-1.622H692.618v-29.922h3.473c47.61-.002 95.22-.017 142.83.029 2.255.002 3.902-.587 5.524-2.249 7.084-7.262 14.325-14.372 21.498-21.548.53-.53.97-1.151 1.767-2.107h-3.018c-12.36.002-24.72.005-37.08.005-45.322.001-90.643-.02-135.965.053-2.501.003-3.52-.576-4.272-3.184-2.352-8.153-5.193-16.165-7.844-24.231l-.894-2.715h3.149c24.08.008 48.159.023 72.239.024 46.969.004 93.938-.012 140.907.04 2.27.003 3.89-.617 5.508-2.278 7.016-7.203 14.193-14.25 21.303-21.362.598-.598 1.134-1.258 2.045-2.275h-3.036z" 
    id="logo2" fill="#000"/>
    <path id="backgroundb1" stroke="#979797" fill="#000" d="M.5.5h1023v1023H.5z"/>
    <path d="M512 338c96.098 0 174 77.903 174 174s-77.902 174-174 174-174-77.903-174-174 77.902-174 174-174zm0 26.117c-81.674 0-147.884 66.21-147.884 147.884 0 81.673 66.21 147.883 147.884 147.883 81.674 0 147.884-66.21 147.884-147.883 0-81.675-66.21-147.884-147.884-147.884z" id="wheel-inner" fill="#FFF"/>
    <path d="M512.313 812.82C346 812.82 211.18 677.998 211.18 511.687c0-166.31 134.821-301.133 301.133-301.133 166.31 0 301.132 134.822 301.132 301.133 0 166.311-134.821 301.133-301.132 301.133m0-655.446C316.632 157.374 158 316.006 158 511.687 158 707.37 316.632 866 512.313 866c195.681 0 354.312-158.63 354.312-354.313 0-195.681-158.63-354.313-354.312-354.313" id="wheel-outer" fill="#FFF"/>
    <path d="M551.64 814.558v-43.59c0-23.954-19.598-43.551-43.55-43.551-23.954 0-43.552 19.597-43.552 43.55v42.383C333.63 792.784 230.328 689.054 210.41 557.93h44.39c23.953 0 43.55-19.598 43.55-43.55 0-23.953-19.597-43.551-43.55-43.551h-45.154C229.616 321.493 357.509 206.31 512.31 206.31c155.445 0 283.763 116.142 302.913 266.383h-47.24c-23.954 0-43.552 19.597-43.552 43.55 0 23.954 19.598 43.552 43.551 43.552h45.935c-21.052 133.042-128.012 237.5-262.277 254.763M512.31 152.38C313.868 152.38 153 313.25 153 511.69S313.868 871 512.31 871s359.31-160.869 359.31-359.31-160.868-359.31-359.31-359.31" id="wheel2-outer" fill="#FFF"/>
    <g id="wheel2-inner" transform="translate(336 336)">
      <path d="M174 325.884c-81.674 0-147.884-66.21-147.884-147.884 0-81.674 66.21-147.884 147.884-147.884 81.674 0 147.884 66.21 147.884 147.884 0 81.674-66.21 147.884-147.884 147.884M174 4C77.903 4 0 81.902 0 178s77.903 174 174 174c96.098 0 174-77.902 174-174S270.098 4 174 4" id="white2" fill="#FFF"/>
      <path d="M177.635 342.984c-82.848 0-168.512-81.23-168.512-164.077S93.679 12.612 176.526 12.612s168.512 96.75 168.512 179.599c0 82.847-84.556 150.773-167.403 150.773M176.5 0C79.022 0 0 79.021 0 176.5 0 273.978 79.022 353 176.5 353 273.98 353 353 273.978 353 176.5 353 79.02 273.979 0 176.5 0" id="orange2" fill="#F15A24"/>
    </g>
    <circle id="circle1" fill="#FFF" cx="384" cy="404" r="44"/>
    <circle id="circle2" fill="#FFF" cx="511" cy="375" r="59"/>
    <circle id="circle3" fill="#FFF" cx="638" cy="404" r="44"/>
    <g id="speed" transform="translate(320 63)">
      <g id="speed-details">
        <path d="M384.956 192.206c0 106.123-86.03 192.152-192.152 192.152C86.682 384.358.652 298.33.652 192.206.652 86.084 86.682.056 192.804.056c106.122 0 192.152 86.028 192.152 192.15" id="whitespeed" fill="#FFF"/>
        <path d="M359.923 191.761c0 92.792-75.221 168.014-168.013 168.014-92.79 0-168.012-75.222-168.012-168.014 0-92.79 75.222-168.012 168.012-168.012 92.792 0 168.013 75.222 168.013 168.012z" id="speed-stroke-1" stroke="#000" stroke-width="3"/>
        <path d="M383.157 191.761c0 105.624-85.624 191.248-191.247 191.248C86.29 383.01.665 297.385.665 191.761.665 86.138 86.289.514 191.91.514c105.623 0 191.247 85.624 191.247 191.247z" id="speed-stroke3" stroke="#000" stroke-width="7"/>
        <path d="M368.815 191.761c0 97.703-79.202 176.906-176.904 176.906-97.703 0-176.907-79.203-176.907-176.906 0-97.702 79.204-176.905 176.907-176.905 97.702 0 176.904 79.203 176.904 176.905z" id="speed-stroke2" stroke="#000" stroke-width="3"/>
        <g id="speed-ticks" transform="translate(24.796 24.122)" stroke="#000" stroke-width="4">
          <path id="Stroke-9" d="M136.815 2.23l3.717 23.423"/>
          <path id="Stroke-11" d="M216.003 30.485l7.065-19.704"/>
          <path id="Stroke-13" d="M275.86 74.355l18.217-14.87"/>
          <path id="Stroke-15" d="M308.205 140.532l23.794-3.717"/>
          <path id="Stroke-17" d="M301.514 214.145l23.049 8.179"/>
          <path id="Stroke-19" d="M324.935 179.941l8.923.372"/>
          <path id="Stroke-21" d="M308.949 98.521l8.551-3.718"/>
          <path id="Stroke-23" d="M255.412 37.178l5.578-7.063"/>
          <path id="Stroke-25" d="M180.685 9.294L181.428 0"/>
          <path id="Stroke-27" d="M99.265 24.909l-3.718-7.436"/>
          <path id="Stroke-29" d="M74.727 58.741L59.485 39.78"/>
          <path id="Stroke-31" d="M38.664 77.701l-7.807-4.833"/>
          <path id="Stroke-33" d="M32.716 118.969l-23.422-8.922"/>
          <path id="Stroke-35" d="M12.268 146.853L.742 144.994"/>
          <path id="Stroke-37" d="M25.653 179.198L0 181.429"/>
          <path id="Stroke-39" d="M33.46 214.889l-24.166 9.294"/>
        </g>
        <g id="numbers" transform="translate(50.984 48.876)" fill="#000" fill-rule="nonzero">
          <path d="M109.502 24l7.425-15.417V6.45h-11.799v2.754h8.262v.054L105.992 24h3.51zm15.822.297c4.185 0 6.4-3.537 6.4-9.18 0-5.184-1.972-8.964-6.21-8.964-4.105 0-6.427 3.672-6.427 9.126.027 5.346 2.187 9.018 6.237 9.018zm.108-2.538c-1.789 0-2.962-2.102-2.996-6.156v-.324c-.028-4.401 1.214-6.588 2.996-6.588 1.998 0 2.97 2.403 2.97 6.48 0 4.212-1.026 6.588-2.97 6.588z" id="70" transform="rotate(-11 118.426 15.225)"/>
          <path d="M51 51.51c4.32 0 7.1-2.728 7.1-6.076 0-2.133-.972-3.618-2.295-4.455-1.188-.783-2.727-1.134-4.266-1.134-.513 0-.864.027-1.269.081l.513-3.51h6.75v-2.754h-9.072l-1.16 8.856c.701-.108 1.43-.162 2.402-.162 3.51 0 4.995 1.323 4.995 3.321 0 2.106-1.863 3.213-3.807 3.213-1.593 0-3.105-.513-3.86-.918l-.676 2.511c.918.513 2.62 1.026 4.644 1.026zm15.848 0c4.185 0 6.4-3.538 6.4-9.18 0-5.185-1.972-8.965-6.21-8.965-4.105 0-6.427 3.672-6.427 9.126.027 5.346 2.187 9.018 6.237 9.018zm.108-2.539c-1.789 0-2.962-2.102-2.996-6.156v-.324c-.028-4.4 1.214-6.588 2.996-6.588 1.998 0 2.97 2.403 2.97 6.48 0 4.212-1.026 6.588-2.97 6.588z" id="50" transform="rotate(-40 59.801 42.437)"/>
          <path d="M10.435 100.695c4.427 0 6.957-2.392 6.957-5.417 0-2.42-1.76-4.07-3.932-4.454v-.055c2.2-.77 3.3-2.31 3.3-4.18 0-2.337-1.898-4.372-5.583-4.372-2.145 0-4.124.66-5.142 1.375l.77 2.447c.743-.495 2.2-1.127 3.657-1.127 1.953 0 2.86 1.017 2.86 2.227 0 1.787-1.98 2.502-3.547 2.502H8.263v2.475H9.83c2.062 0 4.042.908 4.042 3.025.027 1.402-1.017 2.86-3.602 2.86-1.705 0-3.382-.688-4.07-1.1l-.77 2.557c.963.632 2.833 1.237 5.005 1.237zm15.92 0c4.263 0 6.518-3.602 6.518-9.349 0-5.28-2.008-9.129-6.325-9.129-4.18 0-6.544 3.74-6.544 9.294.027 5.445 2.227 9.184 6.352 9.184zm.11-2.584c-1.821 0-3.016-2.141-3.051-6.27v-.33c-.028-4.482 1.237-6.71 3.052-6.71 2.035 0 3.025 2.448 3.025 6.6 0 4.29-1.045 6.71-3.025 6.71z" id="30" transform="rotate(-70 19.151 91.456)"/>
          <path d="M7.585 151.513v-17.55H4.804l-4.266 2.106.567 2.511 3.213-1.62h.054v14.553h3.213zm12.042.297c4.185 0 6.399-3.537 6.399-9.18 0-5.184-1.971-8.964-6.21-8.964-4.104 0-6.426 3.672-6.426 9.126.027 5.346 2.187 9.018 6.237 9.018zm.108-2.538c-1.789 0-2.963-2.102-2.997-6.156v-.324c-.027-4.401 1.215-6.588 2.997-6.588 1.998 0 2.97 2.403 2.97 6.48 0 4.212-1.026 6.588-2.97 6.588z" id="10" transform="rotate(-94 13.282 142.738)"/>
          <path d="M171.519 27.313c2.349-.162 4.455-.972 5.994-2.403 1.809-1.728 3.05-4.401 3.05-8.154 0-4.266-2.186-7.48-6.263-7.48-3.753 0-6.345 2.917-6.345 6.265 0 3.24 2.268 5.454 5.319 5.454 1.7 0 2.943-.567 3.834-1.566l.054.027c-.324 1.647-1.107 2.97-2.241 3.888-.972.783-2.268 1.242-3.564 1.35-.81.08-1.323.108-1.836.054v2.619c.486.027 1.242.027 1.998-.054zm2.619-8.748c-1.836 0-2.862-1.404-2.89-3.213 0-2.133 1.216-3.618 2.89-3.618 2.16 0 3.05 2.052 3.024 4.428 0 .459-.081.729-.19.945-.512.837-1.484 1.458-2.834 1.458zm14.499 8.856c4.185 0 6.399-3.537 6.399-9.18 0-5.184-1.971-8.964-6.21-8.964-4.104 0-6.426 3.672-6.426 9.126.027 5.346 2.187 9.018 6.237 9.018zm.108-2.538c-1.79 0-2.963-2.102-2.997-6.156v-.324c-.027-4.401 1.215-6.588 2.997-6.588 1.998 0 2.97 2.403 2.97 6.48 0 4.212-1.026 6.588-2.97 6.588z" id="90" transform="rotate(26 181.495 18.349)"/>
          <path d="M219.601 67.124v-17.55h-2.78l-4.267 2.106.567 2.51 3.213-1.62h.054v14.554h3.213zm14.472 0v-17.55h-2.78l-4.267 2.106.567 2.51 3.213-1.62h.054v14.554h3.213zm12.042.297c4.185 0 6.4-3.537 6.4-9.18 0-5.184-1.972-8.964-6.21-8.964-4.105 0-6.427 3.672-6.427 9.126.027 5.346 2.187 9.018 6.237 9.018zm.108-2.538c-1.789 0-2.962-2.102-2.996-6.156v-.324c-.028-4.401 1.214-6.588 2.996-6.588 1.998 0 2.97 2.403 2.97 6.48 0 4.212-1.026 6.588-2.97 6.588z" id="110" transform="rotate(56 232.534 58.349)"/>
          <path d="M246.79 126.24v-17.55h-2.781l-4.266 2.106.567 2.511 3.213-1.62h.054v14.553h3.213zm10.88.297c4.348 0 6.832-2.349 6.832-5.319 0-2.376-1.728-3.996-3.861-4.374v-.054c2.16-.756 3.24-2.268 3.24-4.104 0-2.295-1.863-4.293-5.481-4.293-2.106 0-4.05.648-5.05 1.35l.757 2.403c.729-.486 2.16-1.107 3.59-1.107 1.918 0 2.809 1 2.809 2.187 0 1.755-1.944 2.457-3.483 2.457h-1.485v2.43h1.539c2.025 0 3.969.891 3.969 2.97.027 1.377-1 2.808-3.537 2.808-1.674 0-3.321-.675-3.996-1.08l-.756 2.511c.945.621 2.78 1.215 4.914 1.215zm15.634 0c4.185 0 6.399-3.537 6.399-9.18 0-5.184-1.971-8.964-6.21-8.964-4.104 0-6.426 3.672-6.426 9.126.027 5.346 2.187 9.018 6.237 9.018zm.108-2.538c-1.79 0-2.963-2.102-2.997-6.155v-.325c-.027-4.4 1.215-6.588 2.997-6.588 1.998 0 2.97 2.403 2.97 6.48 0 4.212-1.026 6.588-2.97 6.588z" id="130" transform="rotate(84 259.723 117.465)"/>
          <path d="M241.195 187.12v-17.716h-2.807l-4.306 2.126.572 2.534 3.244-1.635h.054v14.69h3.243zm10.766.299c4.36 0 7.168-2.753 7.168-6.132 0-2.153-.982-3.652-2.317-4.497-1.2-.79-2.753-1.145-4.306-1.145a8.93 8.93 0 00-1.281.082l.518-3.543h6.813v-2.78H249.4l-1.172 8.94c.709-.11 1.444-.164 2.426-.164 3.543 0 5.042 1.335 5.042 3.352 0 2.126-1.881 3.243-3.843 3.243-1.608 0-3.135-.518-3.898-.926l-.681 2.534c.927.518 2.644 1.036 4.688 1.036zm15.998 0c4.224 0 6.46-3.57 6.46-9.266 0-5.233-1.99-9.049-6.27-9.049-4.142 0-6.486 3.707-6.486 9.212.028 5.396 2.208 9.103 6.296 9.103zm.109-2.562c-1.853 0-3.052-2.235-3.025-6.54-.027-4.443 1.226-6.651 3.025-6.651 2.017 0 2.998 2.426 2.998 6.541 0 4.252-1.036 6.65-2.998 6.65z" id="150" transform="rotate(106 254.25 178.262)"/>
        </g>
        <g id="speed-bottom-details" transform="translate(86.516 286.922)">
          <path id="Stroke-42" stroke="#000" stroke-width="3" d="M0 3.232l3.056 10.149"/>
          <path id="Stroke-44" stroke="#000" stroke-width="3" d="M26.159.932l-.468 10.25"/>
          <path id="Stroke-46" stroke="#000" stroke-width="3" d="M53.28 10.717l-6.312 8.853"/>
          <path id="Stroke-48" stroke="#000" stroke-width="3" d="M64.738 35.179l8.651-4.426"/>
          <path id="Stroke-50" stroke="#000" stroke-width="3" d="M71.286 56.382l10.287-1.399"/>
          <path id="Stroke-52" stroke="#000" stroke-width="3" d="M125.297 54.75l11.69 2.097"/>
          <path id="Stroke-54" stroke="#000" stroke-width="3" d="M134.415 30.987l8.886 4.427"/>
          <path id="Stroke-56" stroke="#000" stroke-width="3" d="M153.589 9.784l6.312 9.087"/>
          <path id="Stroke-58" stroke="#000" stroke-width="3" d="M180.01 0l.936 11.182"/>
          <path id="Stroke-60" stroke="#000" stroke-width="3" d="M207.834 1.863l-2.805 11.417"/>
          <path d="M41.101 33.33c0 3.486-2.834 6.312-6.332 6.312-3.498 0-6.333-2.826-6.333-6.311 0-3.484 2.835-6.31 6.333-6.31s6.332 2.826 6.332 6.31" id="random-circle1" fill="#000"/>
          <path d="M178.681 33.59c0 3.486-2.835 6.312-6.332 6.312-3.498 0-6.332-2.826-6.332-6.311 0-3.486 2.834-6.311 6.332-6.311 3.497 0 6.332 2.825 6.332 6.31" id="random-circle2" fill="#000"/>
        </g>
        <path d="M48.028 257l.18-3.252c.06-1.104.108-2.388.144-3.444h.024c.216 1.008.504 2.112.816 3.144l1.08 3.456h1.14l1.176-3.504c.36-1.02.696-2.112.96-3.096h.036c-.012 1.092.048 2.352.096 3.396l.156 3.3h1.44l-.468-8.088h-1.92l-1.116 3.24a39.481 39.481 0 00-.804 2.82h-.036c-.204-.9-.456-1.86-.744-2.808l-1.056-3.252h-1.944l-.54 8.088h1.38zm10.212 0v-3.048c.192.036.444.048.72.048 1.044 0 1.968-.276 2.556-.864.456-.432.696-1.068.696-1.836 0-.756-.312-1.392-.792-1.788-.516-.432-1.308-.66-2.388-.66-.996 0-1.728.072-2.256.168V257h1.464zm.72-4.152c-.3 0-.54-.012-.72-.06v-2.736c.156-.036.444-.072.852-.072 1.02 0 1.644.48 1.644 1.38 0 .948-.672 1.488-1.776 1.488zm6 4.152v-3.564h3.42V257h1.476v-8.088H68.38v3.24h-3.42v-3.24h-1.476V257h1.476zm10.488 0v-1.992l.504-.588 1.68 2.58h1.812l-2.472-3.456 2.16-2.388h-1.776l-1.416 1.884a9.764 9.764 0 00-.468.684h-.024v-5.244h-1.476V257h1.476zm6.384 0v-3.456c0-.168.024-.336.084-.48.132-.408.504-.84 1.056-.84.684 0 1.008.576 1.008 1.392V257h1.44v-3.504c0-.168.036-.348.072-.492.156-.42.528-.78 1.032-.78.708 0 1.044.576 1.044 1.548V257h1.44v-3.444c0-1.872-.984-2.532-1.956-2.532-.48 0-.852.12-1.176.348a2.212 2.212 0 00-.72.732h-.024c-.252-.648-.852-1.08-1.62-1.08-.984 0-1.512.54-1.8.996h-.036l-.06-.864h-1.272c.036.504.048 1.068.048 1.74V257h1.44zm9.072.48l2.928-8.7H92.8l-2.928 8.7h1.032zM96.1 257v-3.492c0-.168.012-.324.06-.444.156-.444.564-.828 1.14-.828.816 0 1.128.636 1.128 1.488V257h1.476v-3.444c0-1.872-1.044-2.532-2.04-2.532-.372 0-.72.096-1.008.264a1.98 1.98 0 00-.732.672H96.1v-3.48h-1.488V257H96.1z" id="MPHkm/h" fill="#000" fill-rule="nonzero"/>
      </g>
      <g id="speed-working">
        <g id="spinner" transform="translate(.652 .055)">
          <path d="M223.913 173.813c-3.418-2.769-15.45-.957-17.908-.551-4.09-3.875-9.61-6.266-15.698-6.266-12 0-21.814 9.236-22.721 20.96a2083.03 2083.03 0 01-3.342 11.67L66.51 236.335s-4.148 4.134 1.66 2.757c5.36-1.272 86.263-31.166 98.689-35.762 1.212.014 2.633.167 3.988 1.232 2.117 1.666 4.768 3.087 6.766 4.046a22.759 22.759 0 0012.694 3.846c12.597 0 22.81-10.177 22.81-22.73 0-.025-.004-.05-.004-.074 2.991-3.72 8.196-5.702 9.61-7.285 1.906-2.137 5.005-5.463 1.19-8.551" id="spin" fill="#000"/>
          <path d="M384.304 192.15c0 106.124-86.03 192.153-192.152 192.153C86.03 384.303 0 298.274 0 192.151 0 86.029 86.03 0 192.152 0c106.122 0 192.152 86.029 192.152 192.15" id="backspin"/>
          <path d="M198.9 174.078c-1.408-.468-6.78-1.943-9.664-2.729a12.183 12.183 0 00-1.671-.454l-.189-.05.01.022c-.699-.123-1.414-.199-2.148-.199-6.746 0-12.212 5.447-12.212 12.167 0 6.721 5.466 12.169 12.212 12.169 4.273 0 8.028-2.192 10.21-5.502l.044.102s4.707-7.603 5.193-9.542c.487-1.94.163-5.338-1.785-5.984" id="spin2" fill="#FFF"/>
        </g>
        <path d="M96.624 213.95c0 2.153-1.751 3.9-3.913 3.9a3.908 3.908 0 01-3.915-3.9 3.907 3.907 0 013.915-3.9 3.905 3.905 0 013.913 3.9" id="scolor-1" fill="#000"/>
        <path d="M94.476 188.206a3.907 3.907 0 01-3.914 3.899 3.907 3.907 0 01-3.914-3.9c0-2.153 1.753-3.9 3.914-3.9a3.907 3.907 0 013.914 3.9" id="scolor-2" fill="#000"/>
        <path d="M97.38 164.306c0 2.154-1.753 3.9-3.915 3.9a3.907 3.907 0 01-3.914-3.9 3.906 3.906 0 013.914-3.898 3.906 3.906 0 013.914 3.898" id="scolor-3" fill="#000"/>
        <path d="M107.292 141.965a3.924 3.924 0 01-5.535-.094 3.889 3.889 0 01.095-5.513 3.923 3.923 0 015.533.093 3.89 3.89 0 01-.093 5.514" id="scolor-4" fill="#000"/>
        <path d="M122.364 122.468a3.923 3.923 0 01-5.533-.093 3.89 3.89 0 01.093-5.515 3.924 3.924 0 015.535.093 3.89 3.89 0 01-.095 5.515" id="scolor-5" fill="#000"/>
        <path d="M143.724 106.957a3.923 3.923 0 01-5.533-.094 3.889 3.889 0 01.093-5.514 3.924 3.924 0 015.535.093 3.89 3.89 0 01-.095 5.515" id="scolor-6" fill="#000"/>
        <path d="M167.242 97.77a3.907 3.907 0 01-3.883-3.93 3.908 3.908 0 013.944-3.87 3.908 3.908 0 013.884 3.93 3.907 3.907 0 01-3.945 3.87" id="scolor-7" fill="#000"/>
        <path d="M193.094 95.83a3.907 3.907 0 01-3.883-3.93 3.908 3.908 0 013.943-3.87 3.907 3.907 0 013.883 3.93 3.908 3.908 0 01-3.943 3.87" id="s-8" fill="#000"/>
        <path d="M217.055 98.907a3.907 3.907 0 01-3.884-3.93 3.908 3.908 0 013.945-3.87 3.908 3.908 0 013.883 3.93 3.907 3.907 0 01-3.944 3.87" id="s-9" fill="#000"/>
        <path d="M239.399 108.958a3.89 3.89 0 01.137-5.513 3.924 3.924 0 015.533.135 3.891 3.891 0 01-.137 5.515 3.923 3.923 0 01-5.533-.137" id="s-10" fill="#000"/>
        <path d="M258.848 124.128a3.89 3.89 0 01.138-5.514 3.923 3.923 0 015.532.137 3.89 3.89 0 01-.137 5.513 3.923 3.923 0 01-5.533-.136" id="s-11" fill="#000"/>
        <path d="M274.248 145.53a3.888 3.888 0 01.139-5.511 3.924 3.924 0 015.533.135 3.892 3.892 0 01-.138 5.515 3.923 3.923 0 01-5.534-.138" id="s-12" fill="#000"/>
        <path d="M282.925 166.451a3.906 3.906 0 013.996-3.815 3.906 3.906 0 013.83 3.982 3.907 3.907 0 01-3.999 3.815 3.905 3.905 0 01-3.827-3.982" id="s-13" fill="#000"/>
        <path d="M285.992 190.87a3.907 3.907 0 013.996-3.814 3.906 3.906 0 013.829 3.983 3.908 3.908 0 01-3.998 3.815 3.906 3.906 0 01-3.827-3.983" id="s-14" fill="#000"/>
        <path d="M281.777 216.87a3.906 3.906 0 013.997-3.814 3.905 3.905 0 013.829 3.983 3.907 3.907 0 01-3.997 3.815 3.906 3.906 0 01-3.829-3.984" id="s-15" fill="#000"/>
      </g>
    </g>
    <g id="gas" transform="translate(53 344)">
      <g id="gas-details">
        <path d="M310.683 155.442c0 85.78-69.485 155.318-155.2 155.318C69.772 310.76.287 241.222.287 155.442.286 69.662 69.771.124 155.484.124c85.714 0 155.2 69.538 155.2 155.318" id="whitegas" fill="#FFF"/>
        <path d="M285.463 155.889c0 71.427-57.859 129.33-129.231 129.33-71.37 0-129.231-57.903-129.231-129.33 0-71.429 57.86-129.33 129.231-129.33 71.372 0 129.231 57.901 129.231 129.33z" id="gas-stroke1" stroke="#000" stroke-width="2"/>
        <path d="M295.915 155.889c0 77.204-62.538 139.79-139.683 139.79-77.143 0-139.683-62.586-139.683-139.79 0-77.206 62.54-139.792 139.683-139.792 77.145 0 139.683 62.586 139.683 139.792z" id="gas-stroke2" stroke="#000" stroke-width="3"/>
        <path d="M311.894 155.889c0 86.036-69.692 155.78-155.66 155.78C70.263 311.669.57 241.925.57 155.889.57 69.85 70.263.107 156.233.107c85.969 0 155.661 69.744 155.661 155.782z" id="gas-stroke3" stroke="#000" stroke-width="8"/>
      </g>
      <path id="E" fill="#000" fill-rule="nonzero" d="M70.906 191v-2.727h-7.668v-5.346h6.858v-2.7h-6.858v-4.698h7.263v-2.727H59.917V191z"/>
      <path id="F" fill="#000" fill-rule="nonzero" d="M247.238 195v-7.722h6.696v-2.727h-6.696v-5.022h7.182v-2.727h-10.503V195z"/>
      <g id="gas-circles" transform="translate(34 38)" fill="#000">
        <path d="M117.917 102.323c4.548 0 9.098-.025 13.645.014 1.443.013 2.101-.525 2.095-2.018-.033-6.823-.035-13.647-.002-20.47.008-1.48-.628-2.058-2.073-2.055-9.096.019-18.194.019-27.29-.01-1.502-.002-2.207.567-2.2 2.128.034 6.77.032 13.538 0 20.306-.007 1.544.645 2.14 2.18 2.124 4.549-.05 9.097-.019 13.645-.019m21.298 6.608v1.705c.001 12.35.001 24.697.003 37.044 0 2.31.04 2.389 2.343 2.542 1.428.097 1.987.714 1.977 2.18-.023 3.845.03 3.845-3.9 3.845-14.974 0-29.949.012-44.922-.036-.898-.003-2.467-.343-2.565-.784-.319-1.431-.182-2.99-.017-4.477.033-.287.97-.613 1.522-.68 2.472-.289 2.477-.259 2.477-2.763-.002-23.112.045-46.224-.054-69.334-.016-3.497 1.66-6.219 6.211-6.14 10.364.178 20.734.054 31.101.06 4.055.004 5.822 1.756 5.824 5.75l.001 23.438v1.94c.91.116 1.76.213 2.604.333 4.693.668 8.26 4.62 8.294 9.344.052 6.938-.003 13.878.028 20.816.02 4.089 2.337 6.922 6.204 7.715 4.727.968 9.417-3.754 8.37-8.455-1.617-7.282-3.403-14.53-4.833-21.848-.89-4.54-1.23-9.183-1.853-13.776-.885-6.508-3.836-11.997-8.4-16.666-1.146-1.175-2.382-2.264-3.49-3.472-.45-.486-.885-1.16-.957-1.79-.374-3.294.524-3.965 3.562-2.793 9.13 3.52 14.543 10.512 18.098 19.232.475 1.16.847 2.36 1.324 3.521.498 1.211.264 1.857-1.126 2.23-3.475.932-3.402.987-2.998 4.519 1.106 9.663 3.083 19.14 5.778 28.488 2.095 7.268-2 14.186-9.308 16.043-6.851 1.738-13.843-2.569-15.519-9.65-.308-1.308-.284-2.712-.29-4.073-.029-6.337.008-12.674-.022-19.013-.016-3.437-1.9-5.214-5.467-4.995" id="gas-symbol"/>
        <path d="M11.68 147.734c-.023 2.544-2.112 4.587-4.666 4.563-2.553-.025-4.603-2.105-4.58-4.649.024-2.542 2.113-4.584 4.667-4.562 2.553.025 4.605 2.106 4.58 4.648" id="gas-color1"/>
        <path d="M9.427 117.312c-.025 2.543-2.113 4.586-4.667 4.563-2.552-.025-4.603-2.106-4.58-4.65.024-2.542 2.114-4.585 4.666-4.561 2.554.023 4.605 2.105 4.581 4.648" id="gas-color2"/>
        <path d="M13.12 89.123c-.024 2.543-2.115 4.586-4.667 4.563-2.554-.025-4.603-2.106-4.581-4.65.025-2.541 2.114-4.585 4.668-4.561 2.552.023 4.604 2.106 4.58 4.648" id="gas-color3"/>
        <path d="M25.074 62.85a4.637 4.637 0 01-6.535-.171 4.592 4.592 0 01.172-6.51 4.633 4.633 0 016.535.171 4.59 4.59 0 01-.172 6.51" id="gas-color4"/>
        <path d="M43.094 39.992a4.635 4.635 0 01-6.535-.17 4.594 4.594 0 01.171-6.511 4.634 4.634 0 016.535.172 4.589 4.589 0 01-.171 6.509" id="gas-color5"/>
        <path d="M68.497 21.91a4.639 4.639 0 01-6.537-.172 4.595 4.595 0 01.171-6.51 4.634 4.634 0 016.537.171 4.59 4.59 0 01-.171 6.511" id="gas-color6"/>
        <path d="M96.378 11.319c-2.554-.042-4.588-2.14-4.545-4.682.044-2.544 2.15-4.57 4.702-4.528 2.553.044 4.587 2.14 4.543 4.682-.042 2.544-2.148 4.57-4.7 4.528" id="gas-color7"/>
        <path d="M126.937 9.31a4.614 4.614 0 01-4.545-4.684c.044-2.542 2.15-4.57 4.702-4.526 2.553.044 4.587 2.14 4.543 4.683-.042 2.543-2.148 4.569-4.7 4.527" id="gas-color8"/>
        <path d="M155.206 13.206c-2.552-.043-4.588-2.139-4.544-4.683.044-2.543 2.15-4.57 4.703-4.527 2.553.046 4.585 2.14 4.543 4.684-.044 2.542-2.148 4.57-4.702 4.526" id="gas-9"/>
        <path d="M181.49 25.318a4.594 4.594 0 01.222-6.509 4.638 4.638 0 016.535.22 4.596 4.596 0 01-.223 6.512 4.636 4.636 0 01-6.535-.223" id="gas-10"/>
        <path d="M204.297 43.445a4.591 4.591 0 01.223-6.51 4.636 4.636 0 016.533.22 4.593 4.593 0 01-.223 6.512 4.637 4.637 0 01-6.533-.222" id="gas-11"/>
        <path d="M222.253 68.887a4.591 4.591 0 01.223-6.51 4.636 4.636 0 016.534.221 4.593 4.593 0 01-.223 6.51 4.637 4.637 0 01-6.534-.221" id="gas-12"/>
        <path d="M232.27 93.683c.08-2.542 2.211-4.538 4.763-4.462 2.553.078 4.56 2.204 4.481 4.746a4.615 4.615 0 01-4.763 4.46c-2.552-.078-4.56-2.202-4.48-4.744" id="gas-13"/>
        <path d="M235.624 122.553c.079-2.542 2.211-4.538 4.764-4.461 2.552.078 4.557 2.204 4.479 4.746-.079 2.542-2.212 4.538-4.764 4.46-2.552-.078-4.557-2.203-4.479-4.745" id="gas-14"/>
        <path d="M230.36 153.208c.08-2.542 2.21-4.538 4.762-4.462 2.552.078 4.56 2.204 4.481 4.746a4.615 4.615 0 01-4.763 4.46c-2.552-.078-4.56-2.202-4.48-4.744" id="gas-15"/>
      </g>
    </g>
    <g id="gear" transform="translate(661 337)">
      <g id="gear-details">
        <path d="M318.171 160.031c0 87.791-71.169 158.96-158.96 158.96C71.422 318.99.255 247.822.255 160.03c0-87.79 71.167-158.96 158.956-158.96 87.791 0 158.96 71.17 158.96 158.96" id="whitegear" fill="#FFF"/>
        <path d="M291.795 159.567c0 73.101-59.26 132.362-132.362 132.362-73.1 0-132.361-59.261-132.361-132.362 0-73.102 59.26-132.363 132.36-132.363 73.102 0 132.363 59.261 132.363 132.363z" id="gear-stroke-1" stroke="#000" stroke-width="2"/>
        <path d="M318.867 159.567c0 88.053-71.381 159.432-159.433 159.432C71.381 318.999 0 247.619 0 159.567 0 71.513 71.381.133 159.434.133c88.052 0 159.433 71.38 159.433 159.434z" id="gear-stroke-2" stroke="#000" stroke-width="8"/>
        <path d="M302.5 159.567c0 79.014-64.053 143.067-143.067 143.067-79.012 0-143.066-64.053-143.066-143.067 0-79.015 64.054-143.068 143.066-143.068 79.014 0 143.068 64.053 143.068 143.068z" id="gear-stroke-3" stroke="#000" stroke-width="3"/>
        <path d="M213.95 183.78h-30.681v-2.806h29.862c3.15 0 5.728-2.58 5.728-5.728v-18.062c0-3.148-2.577-5.727-5.728-5.727H183.27v-2.807h29.044c3.15 0 5.726-2.576 5.726-5.726v-18.063c0-3.148-2.576-5.724-5.726-5.724h-29.044V72.714c0-5.707-4.667-10.375-10.372-10.375h-48.695c-5.704 0-10.373 4.668-10.373 10.375v172.282c0 5.704 4.67 10.374 10.373 10.374h48.695c5.705 0 10.372-4.67 10.372-10.374v-31.702h30.68c3.151 0 5.729-2.576 5.729-5.727v-18.06c0-3.15-2.578-5.727-5.728-5.727" id="gear" fill="#000"/>
      </g>
      <path d="M196.825 112v-6.35c.4.075.925.1 1.5.1 2.175 0 4.1-.575 5.325-1.8.95-.9 1.45-2.225 1.45-3.825 0-1.575-.65-2.9-1.65-3.725-1.075-.9-2.725-1.375-4.975-1.375-2.075 0-3.6.15-4.7.35V112h3.05zm1.5-8.65c-.625 0-1.125-.025-1.5-.125v-5.7c.325-.075.925-.15 1.775-.15 2.125 0 3.425 1 3.425 2.875 0 1.975-1.4 3.1-3.7 3.1z" id="P" fill="#000" fill-rule="nonzero"/>
      <path id="L" fill="#000" fill-rule="nonzero" d="M204.775 238v-2.575h-6.925V221.15h-3.075V238z"/>
      <path d="M194.825 142v-6.925h1.55c1.75.05 2.55.75 3.025 2.95.475 2.1.875 3.475 1.125 3.975h3.175c-.35-.65-.8-2.6-1.325-4.7-.425-1.625-1.15-2.8-2.35-3.25v-.075c1.575-.575 3.05-2.05 3.05-4.225 0-1.425-.525-2.6-1.45-3.375-1.125-.95-2.775-1.35-5.2-1.35-1.775 0-3.5.15-4.65.35V142h3.05zm1.825-9.175h-1.825V127.5c.3-.075.925-.15 1.9-.15 2 0 3.3.85 3.3 2.7 0 1.675-1.3 2.775-3.375 2.775z" id="R" fill="#FFF" fill-rule="nonzero"/>
      <path d="M196.6 174v-6.025c0-2.775-.025-5-.15-7.175l.075-.025c.825 1.9 1.95 3.975 3.025 5.825l4.4 7.4h3.175v-16.85h-2.85v5.875c0 2.575.075 4.75.275 7h-.05a46.339 46.339 0 00-2.875-5.65l-4.35-7.225h-3.5V174h2.825z" id="N" fill="#FFF" fill-rule="nonzero"/>
      <path d="M197.925 206.175c3.275 0 5.95-.775 7.625-2.3 1.6-1.45 2.625-3.7 2.625-6.7 0-2.875-1-4.875-2.625-6.2-1.55-1.3-3.725-1.95-6.875-1.95-1.825 0-3.55.125-4.9.35v16.575c1 .125 2.35.225 4.15.225zm.625-2.45c-.625 0-1.275 0-1.7-.075V191.6c.425-.1 1.125-.175 2.1-.175 3.85 0 6 2.125 5.975 5.85 0 4.275-2.375 6.475-6.375 6.45z" id="D" fill="#FFF" fill-rule="nonzero"/>
      <path d="M161.805 113h-23.61c-3.957 0-7.195-3.255-7.195-7.233V90.235c0-3.98 3.238-7.235 7.195-7.235h23.61c3.958 0 7.195 3.255 7.195 7.235v15.532c0 3.978-3.237 7.233-7.195 7.233" id="gearsquare" fill="#FFF"/>
    </g>
    <g id="seatbelt" transform="translate(79 912)">
      <g id="Group-3" transform="translate(0 2)">
        <mask id="mask-2" fill="#fff">
          <use xlink:href="#path-1"/>
        </mask>
        <path d="M84.162 45.475c4.15 0 8.298-.025 12.45.007 3.272.021 5.106-1.398 5.102-4.863-.017-8.185.21-16.384-.2-24.551-.076-1.532-2.607-4.126-4.105-4.204-8.46-.423-16.95-.208-25.43-.25-3.263-.018-4.421 1.698-4.397 4.8.067 8.185.074 16.373 0 24.561-.028 3.307 1.607 4.55 4.673 4.518 3.965-.043 7.938-.01 11.907-.018zM111.93 28.88c0 6.176.077 12.356-.021 18.53-.105 6.486-2.1 8.763-8.31 8.84-12.61.156-25.224.07-37.838.029-4.963-.015-8.27-1.85-8.596-7.56-.063-1.098-2.11-2.775-3.426-2.98-4.953-.772-9.818-.271-13.297 4.003C33.251 58.587 23.955 60.5 13.035 59.9-1.914 59.077.175 61.086.022 46.675c-.056-5.45.066-10.902 0-16.348-.039-3.219 1.522-5.093 4.564-4.55 13.03 2.34 22.54-3.967 32.154-11.65 3.248-2.598 9.118-2.157 13.836-2.492 3.822-.272 7 .053 7.238-5.46.073-1.74 3.447-4.712 5.386-4.775 14.21-.466 28.441-.494 42.662-.297 4.396.064 6.01 3.512 6.037 7.61.05 6.723.014 13.447.014 20.167h.018z" id="Fill-1" fill="#FFF" mask="url(#mask-2)"/>
      </g>
      <path d="M198.749 31.873c2.898.292 5.5.173 5.503-4.147 0-3.689-1.406-5.001-5.087-5.07-3.832-.07-5.465 1.128-5.636 5.118-.172 4.054 1.965 4.411 5.22 4.099zm15.737-4.82c0 4.799-.126 9.602.097 14.392.05 1.073 1.336 2.087 2.05 3.133.905-.942 2.573-1.869 2.59-2.828.192-9.592.189-19.192-.007-28.785-.017-.973-1.654-1.914-2.542-2.869-.734 1.032-2.049 2.028-2.105 3.095-.234 4.609-.097 9.238-.083 13.861zm71.478 14.211c0 3.932-.08 7.867.028 11.799.09 3.434-1.605 4.883-4.898 4.883-7.021-.007-14.045.18-21.052-.104-1.958-.08-4.118-1.185-5.73-2.41-3.71-2.824-6.73-6.826-10.793-8.809-3.73-1.82-8.45-1.781-12.769-2.132-.587-.049-1.853 2.358-1.993 3.71-.395 3.913-2.545 5.82-6.254 6.077-3.399.236-6.825.33-10.23.212-3.735-.129-6.249-2.185-6.451-5.922-.21-4-2.469-5.04-5.902-5.442-3.923-.459-7.797-1.355-11.713-1.883-4.129-.552-6.048-3.025-6.108-6.887-.08-5.175-.321-10.426.455-15.5.307-1.987 2.891-4.477 4.968-5.165 4.038-1.34 8.44-1.667 12.716-2.23 3.189-.42 5.35-1.417 5.549-5.175.216-4.015 2.863-6.022 6.814-6.179 3.052-.118 6.122-.17 9.17.01 4.084.247 6.923 2.099 6.885 6.603-.024 3.171 1.78 4.248 4.475 3.8 10.388-1.726 18.513 2.51 25.709 9.329 4.041 3.83 8.807 4.82 14.324 4.758 14.6-.16 12.667-1.702 12.828 12.903.014 1.25 0 2.504 0 3.754h-.028z" id="Fill-4" fill="#FFF"/>
      <path d="M137.727 27.07c8.782 0 17.568-.143 26.346.071 3.448.084 8.902-1.69 8.927 4.039.021 5.76-5.44 3.982-8.884 4.067-8.839.21-17.68.07-26.523.07-.285.445-.574.887-.859 1.332 3.124 2.878 6.6 5.48 9.208 8.76 1.18 1.484.634 4.324.87 6.55-2.229-.176-5.208.508-6.55-.67-5.56-4.87-10.64-10.29-15.873-15.53-3.096-3.107-3.296-6.1.066-9.312 5.096-4.866 9.807-10.15 15.117-14.76 1.578-1.367 5.38-2.233 6.832-1.293 3.267 2.117 1.457 5.02-.807 7.2-2.817 2.718-5.732 5.337-8.602 7.997.243.491.49.986.732 1.48" id="arrow" fill="#FFF"/>
    </g>
    <g id="degree" transform="translate(766 868)" fill="#FFF">
      <path d="M12.3 23.378c0 7.93 5.58 12.203 14.123 14.643 6.378-2.318 11.276-7.199 11.276-14.4 0-6.345-3.53-12.933-12.53-12.933-8.313 0-12.868 5.856-12.868 12.69m27.562 39.658c0-9.639-6.265-14.276-16.288-17.327-8.656 2.684-13.325 8.785-13.325 16.351-.34 8.053 5.352 15.13 14.808 15.13 8.997 0 14.805-5.98 14.805-14.154M0 63.526C0 53.518 5.582 46.44 14.692 42.29l-.114-.365c-8.2-4.148-11.73-10.982-11.73-17.816C2.848 11.542 12.755 3 25.739 3c14.351 0 21.527 9.639 21.527 19.524 0 6.712-3.075 13.911-12.187 18.548v.365C44.305 45.342 50 52.297 50 61.939 50 75.726 38.953 85 24.829 85 9.339 85 0 75.115 0 63.525" id="Fill-1"/>
      <path d="M104.52 13.067H76.283L73.436 33.53c1.707-.244 3.303-.488 6.034-.488 5.693 0 11.387 1.346 15.94 4.287C101.22 40.885 106 47.746 106 57.795 106 73.358 94.5 85 78.446 85 70.363 85 63.532 82.55 60 80.099l2.506-8.212c3.074 1.962 9.11 4.413 15.827 4.413 9.45 0 17.534-6.616 17.534-17.279-.114-10.293-6.49-17.647-21.293-17.647-4.211 0-7.514.491-10.247.857L69.11 4h35.41v9.067z" id="Fill-3"/>
      <path d="M123.254 16.46c0 5.569 3.904 9.928 8.957 9.928 5.167 0 9.073-4.48 9.073-10.411 0-4.48-2.528-10.173-9.073-10.173-5.972 0-8.957 5.448-8.957 10.656m24.23-.606c0 9.808-7.464 16.224-15.388 16.224-8.957 0-15.044-7.143-15.044-15.618-.113-9.323 6.777-16.346 15.273-16.346 9.417 0 15.159 7.508 15.159 15.74" id="Fill-5"/>
      <path id="Fill-8" d="M159 2h42v8.88h-31.935v27.252h29.508v8.761h-29.508V84H159z"/>
    </g>
  </g>
</svg>
