<?xml version="1.0" encoding="UTF-8"?>
<svg width="1024px" height="1024px" viewBox="0 0 1024 1024" version="1.1" xmlns="http://www.w3.org/2000/svg" xmlns:xlink="http://www.w3.org/1999/xlink">
    <!-- Generator: Sketch 61.2 (89653) - https://sketch.com -->
    <title>Desktop</title>
    <desc>Created with Sketch.</desc>
    <defs>
        <polygon id="path-1" points="0 0.987396713 111.959456 0.987396713 111.959456 60 0 60"></polygon>
    </defs>
    <g id="Desktop" stroke="none" stroke-width="1" fill="none" fill-rule="evenodd">
        <rect fill="#BCAEAE" x="0" y="0" width="1024" height="1024"></rect>
        <rect id="backgroundw1" stroke="#979797" fill="#FFFFFF" x="0.5" y="0.5" width="1023" height="1023"></rect>
        <g id="minitype" transform="translate(388.000000, 472.000000)" fill="#000000">
            <path d="M86.5442239,0.0350633077 C80.3418552,0.106987049 74.135107,0.154204161 67.9343805,0.0213374029 C65.8399178,-0.0236835648 64.8983402,0.663160711 64.2753662,2.6775745 C59.5565296,17.9479181 54.7320392,33.1853195 49.9234243,48.4282113 C48.2625252,53.6940175 46.5550946,58.9455486 44.8684664,64.2036683 C43.9383848,63.1335967 43.5338349,62.0695646 43.1884073,60.9868652 C36.9734477,41.4850997 30.7458972,21.9871774 24.5917022,2.46619557 C24.0398939,0.715868186 23.2986752,-0.0198403115 21.365704,0.0224354753 C15.3472714,0.152557053 9.31953241,0.2063626 3.30438432,0.00596438953 C0.603370425,-0.0835285098 -0.00920244664,0.824028316 0,3.40889071 C0.0931667463,28.4833736 0.0581313006,53.5578565 0.0592261583,78.6328884 L0.0592261583,81.7332958 L16.1377586,81.7332958 L16.1377586,23.1692523 C16.7782503,23.6260504 17.0048859,24.1070061 17.1663774,24.6099233 C23.0298877,42.8812987 28.9158426,61.1449876 34.7032603,79.4405207 C35.2944834,81.3105379 36.0909924,82.0616194 38.0984139,81.9847544 C42.1981085,81.82773 46.3158682,81.782709 50.410636,81.9891467 C52.749252,82.1071894 53.7406456,81.2704583 54.4178151,79.0809019 C59.8198428,61.6199039 65.3302615,44.1929462 70.8154985,26.7577528 C71.1822758,25.5910509 71.6109126,24.4435653 72.0110831,23.286746 C72.2141792,23.3290218 72.4172753,23.3707486 72.6209188,23.4130244 L72.6209188,81.8172983 L88.7536467,81.8172983 C88.8445199,81.0448044 88.9611223,80.5166316 88.9611223,79.9890078 C88.9693337,54.0909706 88.9507211,28.1923844 89,2.2937982 C89.0032743,0.386446471 88.2209985,0.0152980048 86.5442239,0.0350633077" id="Fill-4"></path>
            <path d="M208.906708,0.0243134585 C205.533543,0.214281465 202.131833,0.243844209 198.763059,0.0226710838 C196.189134,-0.14649351 195.543594,0.737651533 195.558964,3.23187123 C195.661614,20.4696885 195.614406,37.7080533 195.615504,54.9469656 L195.615504,57.8495891 C194.545642,57.1439154 193.975854,56.2696246 193.473585,55.3575592 C183.749866,37.7086008 174.006386,20.070044 164.360067,2.37893131 C163.380778,0.584363229 162.243399,-0.0183882835 160.267805,0.0358100813 C155.607403,0.162272933 150.933277,0.243296751 146.281108,0.0122693774 C143.527683,-0.12459518 142.989184,0.875611007 143,3.41362737 C143.092383,25.6683519 143.053958,47.9230765 143.053958,70.1783485 C143.053958,73.2791519 142.965031,76.384335 143.112144,79.4785689 C143.147825,80.2367985 143.930048,81.5857356 144.403224,81.6010644 C149.298568,81.758185 154.201048,81.6979645 159.290712,81.6979645 L159.290712,24.454637 C159.490522,24.3955115 159.690332,24.3358386 159.890142,24.2767131 C160.183819,24.6966135 160.518665,25.0935208 160.765134,25.5396992 C169.410208,41.1827707 178.039364,56.8346015 186.692672,72.4721984 C188.365806,75.4963577 189.459271,79.549191 192.049116,81.1537911 C194.516549,82.6828419 198.590147,81.6640221 201.958372,81.7072713 C205.208577,81.7488782 208.45988,81.7165781 211.943929,81.7165781 L211.943929,76.9394576 C211.943929,52.313144 211.9077,27.6862829 212,3.06051681 C212.008703,0.608998849 211.295645,-0.110361266 208.906708,0.0243134585" id="Fill-6"></path>
            <path d="M111.270662,0.0104781868 C108.794979,-0.0936918329 107.990161,0.551721358 108,3.17085328 C108.098831,28.5111751 108.053598,53.8520481 108.059666,79.1923699 C108.060217,80.1552537 108.164474,81.1175862 108.216327,82 L125,82 L125,0.063941107 C120.233428,0.063941107 115.744874,0.198976318 111.270662,0.0104781868" id="Fill-8"></path>
            <path d="M231,2.83830696 C231.064389,28.2687365 231.037129,53.6997168 231.042036,79.1306971 C231.042036,80.0236017 231.124361,80.9165063 231.177246,82 L247.719755,82 C247.831522,81.4695453 247.936201,81.2029408 247.936746,80.9363364 C247.955283,54.6796534 247.954192,28.4229704 248,2.16628747 C248.00326,0.412977595 247.269964,-0.0111658563 245.694331,0.0202317757 C241.698003,0.100102945 237.694042,0.179974114 233.70371,0.00756255578 C231.474381,-0.0882828474 230.994058,0.719793052 231,2.83830696" id="Fill-10"></path>
        </g>
        <path d="M509.051069,668.00489 C423.564914,666.128523 356.186983,596.333278 356.825858,512.053644 C357.492199,424.127684 430.836989,354.539765 518.513335,358.288111 C602.347645,361.871911 667.579879,430.985938 667.019559,513.950305 C666.427927,601.578438 594.237287,669.469344 509.051069,668.00489 L509.051069,668.00489 Z M920.752231,416.245956 C836.610295,416.247602 752.468909,416.23389 668.326973,416.318905 C665.589645,416.321647 664.084471,415.434747 662.601271,413.21832 C642.38965,383.00229 615.588226,360.593393 582.057469,346.452356 C547.137997,331.726087 510.938029,328.266244 473.961303,336.353653 C426.074269,346.826423 388.588311,372.957338 361.099122,413.413581 C359.714802,415.450653 358.378274,416.309032 355.857933,416.307387 C272.723474,416.237181 189.589015,416.250893 106.454007,416.252538 L99.9998901,416.252538 C101.183154,417.50802 101.784674,418.181559 102.422999,418.81835 C109.351191,425.730356 116.360135,432.564478 123.166375,439.594408 C124.986866,441.474614 126.797469,442.172835 129.370546,442.170641 C200.327933,442.104275 271.285319,442.109211 342.242157,442.109211 C343.128781,442.109211 344.014855,442.191484 345.182738,442.249623 C344.855335,443.259384 344.614727,444.011356 344.367527,444.761135 C341.732925,452.738847 338.913197,460.663356 336.565346,468.72389 C335.77925,471.421887 334.825058,472.250099 332.003682,472.245162 C274.688439,472.150823 217.373197,472.172214 160.057954,472.17002 L156.092866,472.17002 C156.862482,473.058017 157.228887,473.536844 157.650226,473.959178 C165.016786,481.337944 172.423997,488.676123 179.730679,496.113029 C181.132578,497.539638 182.547661,498.078799 184.541741,498.076605 C232.334839,498.026144 280.127938,498.039856 327.921037,498.042599 L331.229122,498.042599 L331.229122,528.193908 L212.646183,528.193908 L212.135853,529.158693 C212.898877,529.668784 213.769021,530.070275 214.408445,530.703775 C221.227869,537.463302 228.080802,544.191017 234.760146,551.086568 C236.747085,553.13845 238.731826,554.041256 241.653181,554.030287 C272.049991,553.920041 302.447901,553.981472 332.844711,553.918944 C334.965138,553.914556 335.708935,554.577675 336.328034,556.648753 C338.758834,564.783881 341.504402,572.824668 344.148343,580.895623 C344.447181,581.809399 344.842151,582.691911 345.417853,584.163496 L268.123357,584.163496 C269.019319,585.167772 269.415938,585.660859 269.861997,586.105132 C277.11045,593.337453 284.402301,600.527541 291.588679,607.820744 C293.042765,609.297265 294.504541,609.945026 296.597501,609.937347 C316.556978,609.866593 336.516455,609.922538 356.475933,609.846299 C358.449687,609.83862 359.593399,610.457859 360.694813,612.084117 C390.486807,656.064923 431.445101,682.907223 484.005314,691.619905 C510.784765,696.058244 537.307677,694.269635 563.27741,686.419172 C604.949287,673.82212 637.947741,649.311429 662.312322,613.292978 C664.05261,610.720584 665.856621,609.799129 668.929591,609.821068 C688.429826,609.961481 707.932807,609.933508 727.433591,609.812841 C728.958541,609.804065 730.845501,609.044962 731.937575,607.989129 C739.362914,600.811108 746.622903,593.463056 753.924093,586.157787 C754.446509,585.635081 754.871143,585.015293 755.814898,583.861281 L678.690146,583.861281 C679.027986,582.800511 679.240029,582.118196 679.463607,581.439172 C682.149298,573.289235 685.000887,565.187565 687.424546,556.960841 C688.146919,554.508565 689.087927,553.90249 691.494557,553.908523 C722.074845,553.988602 752.655133,553.944175 783.235421,554.000668 C785.214669,554.004508 786.681389,553.510323 788.085485,552.089747 C795.53829,544.548629 803.076242,537.090881 810.567501,529.587608 C810.889959,529.26455 811.044322,528.774205 811.500818,527.965738 L692.618493,527.965738 L692.618493,498.043696 L696.090829,498.043696 C743.700999,498.041502 791.31117,498.027241 838.921341,498.072765 C841.175805,498.074959 842.822706,497.486435 844.444887,495.823978 C851.52909,488.562038 858.769853,481.452029 865.943047,474.276202 C866.472605,473.745268 866.913719,473.124932 867.710253,472.168923 C866.323735,472.168923 865.508525,472.168375 864.692215,472.168923 C852.331666,472.170568 839.971666,472.173859 827.611117,472.174408 C782.290018,472.174956 736.968919,472.154662 691.647271,472.226514 C689.145607,472.230353 688.127143,471.651153 687.375106,469.042559 C685.02341,460.889881 682.182258,452.878162 679.530626,444.811596 C679.263101,443.997644 678.994477,443.183693 678.636861,442.096596 C679.968994,442.096596 680.877591,442.096047 681.785639,442.096596 C705.865117,442.105372 729.944594,442.119632 754.024621,442.121278 C800.993719,442.125117 847.962818,442.109211 894.931917,442.161317 C897.202861,442.164059 898.821197,441.543723 900.439533,439.882911 C907.455618,432.680208 914.632658,425.632726 921.743229,418.520523 C922.341453,417.922675 922.877053,417.263396 923.788397,416.245956 L920.752231,416.245956 Z" id="logo" fill="#000000"></path>
        <path d="M511.500276,668 C426.172313,668 357,598.827687 357,513.500276 C357,428.171761 426.172313,359 511.500276,359 C596.828239,359 666,428.171761 666,513.500276 C666,598.827687 596.828239,668 511.500276,668 M687.359979,466.23146 C685.528978,459.34248 683.312301,452.611035 680.718799,446.069184 C841.312291,453.521974 905,356.442792 905,356.442792 L892.033044,309.267952 C834.086231,420.078111 681.208504,414.610815 663.873486,413.619726 C631.354834,363.922114 575.172621,331.076331 511.301203,331.076331 C448.298527,331.076331 392.769255,363.031074 360.060807,411.598303 C326.45927,412.509795 191.580568,409.523815 137.966956,307 L125,354.173734 C125,354.173734 186.94635,448.602458 342.709189,444.050524 C339.950238,450.771467 337.581946,457.69306 335.633084,464.789324 C298.325833,468.758654 192.805662,473.530032 138.811906,409.691852 L129.086965,444.433583 C129.086965,444.433583 181.345448,513.011081 329.797566,497.688724 C329.374815,502.750297 329.147393,507.867147 329.147393,513.038718 C329.147393,517.135183 329.296241,521.196271 329.563504,525.225299 C307.249538,529.498092 242.351675,539.33049 192.784081,520.762358 L210.52193,555.357057 C210.52193,555.357057 257.472228,574.336991 334.02508,555.007163 C336.340805,564.80308 339.44504,574.294429 343.274148,583.407694 C325.079241,589.413925 294.064012,595.035439 251.158625,586.608695 L262.862308,611.027735 C262.862308,611.027735 315.749385,618.765746 354.117941,605.025925 C385.754571,658.854825 444.297883,695 511.301203,695 C578.546331,695 637.273353,658.59503 668.829747,604.443322 C707.385886,622.042475 767.138245,613.296239 767.138245,613.296239 L778.841375,588.877753 C729.574244,598.552616 695.987094,589.70799 679.484298,583.024635 C683.203846,574.116994 686.232273,564.850064 688.507605,555.291279 C769.463378,577.843666 819.477516,557.625561 819.477516,557.625561 L837.215365,523.030863 C779.105871,544.799444 699.92355,527.533602 692.992421,525.954935 C693.292331,521.687117 693.455012,517.381711 693.455012,513.038718 C693.455012,508.365178 693.27739,503.733648 692.931,499.148549 C846.952479,517.513267 900.913035,446.702088 900.913035,446.702088 L891.188094,411.959804 C833.270609,480.437253 716.064462,469.971398 687.359979,466.23146" id="logowing" fill="#505050"></path>
        <path d="M509.051069,668.00489 C423.564914,666.128523 356.186983,596.333278 356.825858,512.053644 C357.492199,424.127684 430.836989,354.539765 518.513335,358.288111 C602.347645,361.871911 667.579879,430.985938 667.019559,513.950305 C666.427927,601.578438 594.237287,669.469344 509.051069,668.00489 L509.051069,668.00489 Z M920.752231,416.245956 C836.610295,416.247602 752.468909,416.23389 668.326973,416.318905 C665.589645,416.321647 664.084471,415.434747 662.601271,413.21832 C642.38965,383.00229 615.588226,360.593393 582.057469,346.452356 C547.137997,331.726087 510.938029,328.266244 473.961303,336.353653 C426.074269,346.826423 388.588311,372.957338 361.099122,413.413581 C359.714802,415.450653 358.378274,416.309032 355.857933,416.307387 C272.723474,416.237181 189.589015,416.250893 106.454007,416.252538 L99.9998901,416.252538 C101.183154,417.50802 101.784674,418.181559 102.422999,418.81835 C109.351191,425.730356 116.360135,432.564478 123.166375,439.594408 C124.986866,441.474614 126.797469,442.172835 129.370546,442.170641 C200.327933,442.104275 271.285319,442.109211 342.242157,442.109211 C343.128781,442.109211 344.014855,442.191484 345.182738,442.249623 C344.855335,443.259384 344.614727,444.011356 344.367527,444.761135 C341.732925,452.738847 338.913197,460.663356 336.565346,468.72389 C335.77925,471.421887 334.825058,472.250099 332.003682,472.245162 C274.688439,472.150823 217.373197,472.172214 160.057954,472.17002 L156.092866,472.17002 C156.862482,473.058017 157.228887,473.536844 157.650226,473.959178 C165.016786,481.337944 172.423997,488.676123 179.730679,496.113029 C181.132578,497.539638 182.547661,498.078799 184.541741,498.076605 C232.334839,498.026144 280.127938,498.039856 327.921037,498.042599 L331.229122,498.042599 L331.229122,528.193908 L212.646183,528.193908 L212.135853,529.158693 C212.898877,529.668784 213.769021,530.070275 214.408445,530.703775 C221.227869,537.463302 228.080802,544.191017 234.760146,551.086568 C236.747085,553.13845 238.731826,554.041256 241.653181,554.030287 C272.049991,553.920041 302.447901,553.981472 332.844711,553.918944 C334.965138,553.914556 335.708935,554.577675 336.328034,556.648753 C338.758834,564.783881 341.504402,572.824668 344.148343,580.895623 C344.447181,581.809399 344.842151,582.691911 345.417853,584.163496 L268.123357,584.163496 C269.019319,585.167772 269.415938,585.660859 269.861997,586.105132 C277.11045,593.337453 284.402301,600.527541 291.588679,607.820744 C293.042765,609.297265 294.504541,609.945026 296.597501,609.937347 C316.556978,609.866593 336.516455,609.922538 356.475933,609.846299 C358.449687,609.83862 359.593399,610.457859 360.694813,612.084117 C390.486807,656.064923 431.445101,682.907223 484.005314,691.619905 C510.784765,696.058244 537.307677,694.269635 563.27741,686.419172 C604.949287,673.82212 637.947741,649.311429 662.312322,613.292978 C664.05261,610.720584 665.856621,609.799129 668.929591,609.821068 C688.429826,609.961481 707.932807,609.933508 727.433591,609.812841 C728.958541,609.804065 730.845501,609.044962 731.937575,607.989129 C739.362914,600.811108 746.622903,593.463056 753.924093,586.157787 C754.446509,585.635081 754.871143,585.015293 755.814898,583.861281 L678.690146,583.861281 C679.027986,582.800511 679.240029,582.118196 679.463607,581.439172 C682.149298,573.289235 685.000887,565.187565 687.424546,556.960841 C688.146919,554.508565 689.087927,553.90249 691.494557,553.908523 C722.074845,553.988602 752.655133,553.944175 783.235421,554.000668 C785.214669,554.004508 786.681389,553.510323 788.085485,552.089747 C795.53829,544.548629 803.076242,537.090881 810.567501,529.587608 C810.889959,529.26455 811.044322,528.774205 811.500818,527.965738 L692.618493,527.965738 L692.618493,498.043696 L696.090829,498.043696 C743.700999,498.041502 791.31117,498.027241 838.921341,498.072765 C841.175805,498.074959 842.822706,497.486435 844.444887,495.823978 C851.52909,488.562038 858.769853,481.452029 865.943047,474.276202 C866.472605,473.745268 866.913719,473.124932 867.710253,472.168923 C866.323735,472.168923 865.508525,472.168375 864.692215,472.168923 C852.331666,472.170568 839.971666,472.173859 827.611117,472.174408 C782.290018,472.174956 736.968919,472.154662 691.647271,472.226514 C689.145607,472.230353 688.127143,471.651153 687.375106,469.042559 C685.02341,460.889881 682.182258,452.878162 679.530626,444.811596 C679.263101,443.997644 678.994477,443.183693 678.636861,442.096596 C679.968994,442.096596 680.877591,442.096047 681.785639,442.096596 C705.865117,442.105372 729.944594,442.119632 754.024621,442.121278 C800.993719,442.125117 847.962818,442.109211 894.931917,442.161317 C897.202861,442.164059 898.821197,441.543723 900.439533,439.882911 C907.455618,432.680208 914.632658,425.632726 921.743229,418.520523 C922.341453,417.922675 922.877053,417.263396 923.788397,416.245956 L920.752231,416.245956 Z" id="logo2" fill="#000000"></path>
        <rect id="backgroundb1" stroke="#979797" fill="#000000" x="0.5" y="0.5" width="1023" height="1023"></rect>
        <path d="M512.000264,338 C608.097867,338 686,415.902543 686,512.000529 C686,608.097457 608.097867,686 512.000264,686 C415.902133,686 338,608.097457 338,512.000529 C338,415.902543 415.902133,338 512.000264,338 Z M512.000264,364.116571 C430.325732,364.116571 364.116082,430.326121 364.116082,512.000529 C364.116082,593.673879 430.325732,659.883958 512.000264,659.883958 C593.674268,659.883958 659.883918,593.673879 659.883918,512.000529 C659.883918,430.326121 593.674268,364.116571 512.000264,364.116571 Z" id="wheel-inner" fill="#FFFFFF"></path>
        <path d="M512.312942,812.820294 C346.001422,812.820294 211.179864,677.998208 211.179864,511.687216 C211.179864,345.376224 346.001422,210.554138 512.312942,210.554138 C678.623934,210.554138 813.445492,345.376224 813.445492,511.687216 C813.445492,677.998208 678.623934,812.820294 512.312942,812.820294 M512.312942,157.374379 C316.631586,157.374379 158.000106,316.00586 158.000106,511.687216 C158.000106,707.369101 316.631586,866.000053 512.312942,866.000053 C707.994299,866.000053 866.62525,707.369101 866.62525,511.687216 C866.62525,316.00586 707.994299,157.374379 512.312942,157.374379" id="wheel-outer" fill="#FFFFFF"></path>
        <path d="M551.640301,814.558446 L551.640301,770.96753 C551.640301,747.014267 532.042323,727.416826 508.089061,727.416826 C484.136335,727.416826 464.538357,747.014267 464.538357,770.96753 L464.538357,813.349926 C333.629421,792.783631 230.32719,689.054074 210.409657,557.930672 L254.799462,557.930672 C278.752725,557.930672 298.350702,538.332158 298.350702,514.379968 C298.350702,490.426705 278.752725,470.828728 254.799462,470.828728 L209.645619,470.828728 C229.616233,321.492803 357.509229,206.310182 512.310304,206.310182 C667.75478,206.310182 796.073493,322.452006 815.222699,472.69298 L767.982093,472.69298 C744.029367,472.69298 724.431389,492.290422 724.431389,516.243684 C724.431389,540.196947 744.029367,559.794924 767.982093,559.794924 L813.917132,559.794924 C792.864533,692.836733 685.90457,797.29494 551.640301,814.558446 M512.310304,152.380357 C313.868449,152.380357 153.000107,313.248698 153.000107,511.690018 C153.000107,710.131337 313.868449,871.000214 512.310304,871.000214 C710.751623,871.000214 871.620501,710.131337 871.620501,511.690018 C871.620501,313.248698 710.751623,152.380357 512.310304,152.380357" id="wheel2-outer" fill="#FFFFFF"></path>
        <g id="wheel2-inner" transform="translate(336.000000, 336.000000)">
            <path d="M174.000268,325.883881 C92.3260595,325.883881 26.1161192,259.674477 26.1161192,178.000268 C26.1161192,96.3255226 92.3260595,30.1161192 174.000268,30.1161192 C255.674477,30.1161192 321.884418,96.3255226 321.884418,178.000268 C321.884418,259.674477 255.674477,325.883881 174.000268,325.883881 M174.000268,4 C77.9027634,4 0,81.9022266 0,178.000268 C0,274.097773 77.9027634,352 174.000268,352 C270.097773,352 348,274.097773 348,178.000268 C348,81.9022266 270.097773,4 174.000268,4" id="white2" fill="#FFFFFF"></path>
            <path d="M177.63479,342.984462 C94.7867739,342.984462 9.12282554,261.754587 9.12282554,178.907107 C9.12282554,96.0596266 93.6785235,12.612179 176.526004,12.612179 C259.373484,12.612179 345.037969,109.362921 345.037969,192.210937 C345.037969,275.058418 260.482271,342.984462 177.63479,342.984462 M176.500268,0 C79.0219523,0 0,79.0214162 0,176.499732 C0,273.978048 79.0219523,353 176.500268,353 C273.978584,353 353,273.978048 353,176.499732 C353,79.0214162 273.978584,0 176.500268,0" id="orange2" fill="#F15A24"></path>
        </g>
        <circle id="circle1" fill="#FFFFFF" cx="384" cy="404" r="44"></circle>
        <circle id="circle2" fill="#FFFFFF" cx="511" cy="375" r="59"></circle>
        <circle id="circle3" fill="#FFFFFF" cx="638" cy="404" r="44"></circle>
        <g id="speed" transform="translate(319.500000, 63.000000)">
            <g id="speed-details" transform="translate(0.500000, 0.000000)">
                <path d="M384.956455,192.20594 C384.956455,298.329198 298.926214,384.358112 192.804283,384.358112 C86.6823517,384.358112 0.652110345,298.329198 0.652110345,192.20594 C0.652110345,86.0840086 86.6823517,0.0550948276 192.804283,0.0550948276 C298.926214,0.0550948276 384.956455,86.0840086 384.956455,192.20594" id="whitespeed" fill="#FFFFFF"></path>
                <path d="M359.922959,191.761198 C359.922959,284.552836 284.701924,359.775198 191.910286,359.775198 C99.1199759,359.775198 23.8976138,284.552836 23.8976138,191.761198 C23.8976138,98.9708879 99.1199759,23.7485259 191.910286,23.7485259 C284.701924,23.7485259 359.922959,98.9708879 359.922959,191.761198 Z" id="speed-stroke-1" stroke="#000000" stroke-width="3"></path>
                <path d="M383.157045,191.761198 C383.157045,297.385284 297.533045,383.009284 191.910286,383.009284 C86.2888552,383.009284 0.664855172,297.385284 0.664855172,191.761198 C0.664855172,86.1384397 86.2888552,0.514439655 191.910286,0.514439655 C297.533045,0.514439655 383.157045,86.1384397 383.157045,191.761198 Z" id="speed-stroke3" stroke="#000000" stroke-width="7"></path>
                <path d="M368.815397,191.761198 C368.815397,289.463578 289.612931,368.667371 191.910552,368.667371 C94.2081724,368.667371 15.0043793,289.463578 15.0043793,191.761198 C15.0043793,94.058819 94.2081724,14.8563534 191.910552,14.8563534 C289.612931,14.8563534 368.815397,94.058819 368.815397,191.761198 Z" id="speed-stroke2" stroke="#000000" stroke-width="3"></path>
                <g id="speed-ticks" transform="translate(24.795859, 24.122374)" stroke="#000000" stroke-width="4">
                    <line x1="136.81506" y1="2.22994655" x2="140.532302" y2="25.65255" id="Stroke-9"></line>
                    <line x1="216.003453" y1="30.4852293" x2="223.06754" y2="10.7811948" id="Stroke-11"></line>
                    <line x1="275.8602" y1="74.3551828" x2="294.077338" y2="59.4848897" id="Stroke-13"></line>
                    <line x1="308.204581" y1="140.532302" x2="331.998909" y2="136.81506" id="Stroke-15"></line>
                    <line x1="301.513547" y1="214.144567" x2="324.563098" y2="222.323826" id="Stroke-17"></line>
                    <line x1="324.935486" y1="179.941034" x2="333.858193" y2="180.312759" id="Stroke-19"></line>
                    <line x1="308.948693" y1="98.5213672" x2="317.499676" y2="94.8027983" id="Stroke-21"></line>
                    <line x1="255.412319" y1="37.1775914" x2="260.989509" y2="30.1148328" id="Stroke-23"></line>
                    <line x1="180.685014" y1="9.29443103" x2="181.428462" y2="-5.5067062e-14" id="Stroke-25"></line>
                    <line x1="99.2653466" y1="24.9091017" x2="95.5467776" y2="17.4732914" id="Stroke-27"></line>
                    <line x1="74.7270397" y1="58.7405121" x2="59.4850224" y2="39.7799259" id="Stroke-29"></line>
                    <line x1="38.6643552" y1="77.7013638" x2="30.8568207" y2="72.8676224" id="Stroke-31"></line>
                    <line x1="32.7162379" y1="118.969381" x2="9.29363448" y2="110.046674" id="Stroke-33"></line>
                    <line x1="12.2682241" y1="146.852541" x2="0.74212069" y2="144.993921" id="Stroke-35"></line>
                    <line x1="25.6529483" y1="179.19825" x2="-5.32907052e-15" y2="181.428595" id="Stroke-37"></line>
                    <line x1="33.46035" y1="214.888812" x2="9.29429828" y2="224.183243" id="Stroke-39"></line>
                </g>
                <g id="numbers" transform="translate(50.983635, 48.876464)" fill="#000000" fill-rule="nonzero">
                    <path d="M109.502333,24 L116.927333,8.583 L116.927333,6.45 L105.128333,6.45 L105.128333,9.204 L113.390333,9.204 L113.390333,9.258 L105.992333,24 L109.502333,24 Z M125.324333,24.297 C129.509333,24.297 131.723333,20.76 131.723333,15.117 C131.723333,9.933 129.752333,6.153 125.513333,6.153 C121.409333,6.153 119.087333,9.825 119.087333,15.279 C119.114333,20.625 121.274333,24.297 125.324333,24.297 Z M125.432333,21.759 C123.64341,21.759 122.469682,19.6570828 122.435643,15.6031038 L122.435333,15.279 C122.408333,10.878 123.650333,8.691 125.432333,8.691 C127.430333,8.691 128.402333,11.094 128.402333,15.171 C128.402333,19.383 127.376333,21.759 125.432333,21.759 Z" id="70" transform="translate(118.425833, 15.225000) rotate(-11.000000) translate(-118.425833, -15.225000) "></path>
                    <path d="M50.9993743,51.509352 C55.3193743,51.509352 58.1003743,48.782352 58.1003743,45.434352 C58.1003743,43.301352 57.1283743,41.816352 55.8053743,40.979352 C54.6173743,40.196352 53.0783743,39.845352 51.5393743,39.845352 C51.0263743,39.845352 50.6753743,39.872352 50.2703743,39.926352 L50.7833743,36.416352 L57.5333743,36.416352 L57.5333743,33.662352 L48.4613743,33.662352 L47.3003743,42.518352 C48.0023743,42.410352 48.7313743,42.356352 49.7033743,42.356352 C53.2133743,42.356352 54.6983743,43.679352 54.6983743,45.677352 C54.6983743,47.783352 52.8353743,48.890352 50.8913743,48.890352 C49.2983743,48.890352 47.7863743,48.377352 47.0303743,47.972352 L46.3553743,50.483352 C47.2733743,50.996352 48.9743743,51.509352 50.9993743,51.509352 Z M66.8483743,51.509352 C71.0333743,51.509352 73.2473743,47.972352 73.2473743,42.329352 C73.2473743,37.145352 71.2763743,33.365352 67.0373743,33.365352 C62.9333743,33.365352 60.6113743,37.037352 60.6113743,42.491352 C60.6383743,47.837352 62.7983743,51.509352 66.8483743,51.509352 Z M66.9563743,48.971352 C65.1674512,48.971352 63.9937234,46.8694348 63.9596843,42.8154558 L63.9593743,42.491352 C63.9323743,38.090352 65.1743743,35.903352 66.9563743,35.903352 C68.9543743,35.903352 69.9263743,38.306352 69.9263743,42.383352 C69.9263743,46.595352 68.9003743,48.971352 66.9563743,48.971352 Z" id="50" transform="translate(59.801374, 42.437352) rotate(-40.000000) translate(-59.801374, -42.437352) "></path>
                    <path d="M10.4348073,100.695288 C14.8618887,100.695288 17.3916495,98.3030139 17.3916495,95.2782999 C17.3916495,92.8585287 15.6318159,91.2086847 13.4595213,90.8237211 L13.4595213,90.7687263 C15.6593133,89.9987991 16.7592093,88.4589447 16.7592093,86.5891215 C16.7592093,84.2518425 14.8618887,82.2170349 11.1772371,82.2170349 C9.03243991,82.2170349 7.05262711,82.8769725 6.03522331,83.5919049 L6.80515051,86.0391735 C7.54758031,85.5442203 9.00494251,84.9117801 10.4623047,84.9117801 C12.4146201,84.9117801 13.3220343,85.9291839 13.3220343,87.1390695 C13.3220343,88.9264005 11.3422215,89.6413329 9.77486971,89.6413329 L8.26251271,89.6413329 L8.26251271,92.1160989 L9.82986451,92.1160989 C11.8921695,92.1160989 13.8719823,93.0235131 13.8719823,95.1408129 C13.8994797,96.5431803 12.8545785,98.0005425 10.2698229,98.0005425 C8.56498411,98.0005425 6.88764271,97.3131075 6.20020771,96.9006465 L5.43028051,99.4579047 C6.39268951,100.090345 8.26251271,100.695288 10.4348073,100.695288 Z M26.3558019,100.695288 C30.6178989,100.695288 32.8726857,97.0931283 32.8726857,91.3461717 C32.8726857,86.0666709 30.8653755,82.2170349 26.5482837,82.2170349 C22.3686789,82.2170349 20.0039025,85.9566813 20.0039025,91.5111561 C20.0313999,96.9556413 22.2311919,100.695288 26.3558019,100.695288 Z M26.4657915,98.1105321 C24.6439125,98.1105321 23.448562,95.9698929 23.4138958,91.8412306 L23.4135801,91.5111561 C23.3860827,87.0290799 24.6509631,84.8017905 26.4657915,84.8017905 C28.5005991,84.8017905 29.4905055,87.2490591 29.4905055,91.4011665 C29.4905055,95.6907609 28.4456043,98.1105321 26.4657915,98.1105321 Z" id="30" transform="translate(19.151483, 91.456161) rotate(-70.000000) translate(-19.151483, -91.456161) "></path>
                    <path d="M7.585,151.513014 L7.585,133.963014 L4.804,133.963014 L0.538,136.069014 L1.105,138.580014 L4.318,136.960014 L4.372,136.960014 L4.372,151.513014 L7.585,151.513014 Z M19.627,151.810014 C23.812,151.810014 26.026,148.273014 26.026,142.630014 C26.026,137.446014 24.055,133.666014 19.816,133.666014 C15.712,133.666014 13.39,137.338014 13.39,142.792014 C13.417,148.138014 15.577,151.810014 19.627,151.810014 Z M19.735,149.272014 C17.9460769,149.272014 16.7723491,147.170097 16.73831,143.116118 L16.738,142.792014 C16.711,138.391014 17.953,136.204014 19.735,136.204014 C21.733,136.204014 22.705,138.607014 22.705,142.684014 C22.705,146.896014 21.679,149.272014 19.735,149.272014 Z" id="10" transform="translate(13.282000, 142.738014) rotate(-94.000000) translate(-13.282000, -142.738014) "></path>
                    <path d="M171.518518,27.3125356 C173.867518,27.1505356 175.973518,26.3405356 177.512518,24.9095356 C179.321518,23.1815356 180.563518,20.5085356 180.563518,16.7555356 C180.563518,12.4895356 178.376518,9.27653564 174.299518,9.27653564 C170.546518,9.27653564 167.954518,12.1925356 167.954518,15.5405356 C167.954518,18.7805356 170.222518,20.9945356 173.273518,20.9945356 C174.974518,20.9945356 176.216518,20.4275356 177.107518,19.4285356 L177.161518,19.4555356 C176.837518,21.1025356 176.054518,22.4255356 174.920518,23.3435356 C173.948518,24.1265356 172.652518,24.5855356 171.356518,24.6935356 C170.546518,24.7745356 170.033518,24.8015356 169.520518,24.7475356 L169.520518,27.3665356 C170.006518,27.3935356 170.762518,27.3935356 171.518518,27.3125356 Z M174.137518,18.5645356 C172.301518,18.5645356 171.275518,17.1605356 171.248518,15.3515356 C171.248518,13.2185356 172.463518,11.7335356 174.137518,11.7335356 C176.297518,11.7335356 177.188518,13.7855356 177.161518,16.1615356 C177.161518,16.6205356 177.080518,16.8905356 176.972518,17.1065356 C176.459518,17.9435356 175.487518,18.5645356 174.137518,18.5645356 Z M188.636518,27.4205356 C192.821518,27.4205356 195.035518,23.8835356 195.035518,18.2405356 C195.035518,13.0565356 193.064518,9.27653564 188.825518,9.27653564 C184.721518,9.27653564 182.399518,12.9485356 182.399518,18.4025356 C182.426518,23.7485356 184.586518,27.4205356 188.636518,27.4205356 Z M188.744518,24.8825356 C186.955595,24.8825356 185.781867,22.7806185 185.747828,18.7266394 L185.747518,18.4025356 C185.720518,14.0015356 186.962518,11.8145356 188.744518,11.8145356 C190.742518,11.8145356 191.714518,14.2175356 191.714518,18.2945356 C191.714518,22.5065356 190.688518,24.8825356 188.744518,24.8825356 Z" id="90" transform="translate(181.495018, 18.348536) rotate(26.000000) translate(-181.495018, -18.348536) "></path>
                    <path d="M219.601365,67.1235356 L219.601365,49.5735356 L216.820365,49.5735356 L212.554365,51.6795356 L213.121365,54.1905356 L216.334365,52.5705356 L216.388365,52.5705356 L216.388365,67.1235356 L219.601365,67.1235356 Z M234.073365,67.1235356 L234.073365,49.5735356 L231.292365,49.5735356 L227.026365,51.6795356 L227.593365,54.1905356 L230.806365,52.5705356 L230.860365,52.5705356 L230.860365,67.1235356 L234.073365,67.1235356 Z M246.115365,67.4205356 C250.300365,67.4205356 252.514365,63.8835356 252.514365,58.2405356 C252.514365,53.0565356 250.543365,49.2765356 246.304365,49.2765356 C242.200365,49.2765356 239.878365,52.9485356 239.878365,58.4025356 C239.905365,63.7485356 242.065365,67.4205356 246.115365,67.4205356 Z M246.223365,64.8825356 C244.434442,64.8825356 243.260714,62.7806185 243.226675,58.7266394 L243.226365,58.4025356 C243.199365,54.0015356 244.441365,51.8145356 246.223365,51.8145356 C248.221365,51.8145356 249.193365,54.2175356 249.193365,58.2945356 C249.193365,62.5065356 248.167365,64.8825356 246.223365,64.8825356 Z" id="110" transform="translate(232.534365, 58.348536) rotate(56.000000) translate(-232.534365, -58.348536) "></path>
                    <path d="M246.789679,126.2404 L246.789679,108.6904 L244.008679,108.6904 L239.742679,110.7964 L240.309679,113.3074 L243.522679,111.6874 L243.576679,111.6874 L243.576679,126.2404 L246.789679,126.2404 Z M257.670679,126.5374 C262.017679,126.5374 264.501679,124.1884 264.501679,121.2184 C264.501679,118.8424 262.773679,117.2224 260.640679,116.8444 L260.640679,116.7904 C262.800679,116.0344 263.880679,114.5224 263.880679,112.6864 C263.880679,110.3914 262.017679,108.3934 258.399679,108.3934 C256.293679,108.3934 254.349679,109.0414 253.350679,109.7434 L254.106679,112.1464 C254.835679,111.6604 256.266679,111.0394 257.697679,111.0394 C259.614679,111.0394 260.505679,112.0384 260.505679,113.2264 C260.505679,114.9814 258.561679,115.6834 257.022679,115.6834 L255.537679,115.6834 L255.537679,118.1134 L257.076679,118.1134 C259.101679,118.1134 261.045679,119.0044 261.045679,121.0834 C261.072679,122.4604 260.046679,123.8914 257.508679,123.8914 C255.834679,123.8914 254.187679,123.2164 253.512679,122.8114 L252.756679,125.3224 C253.701679,125.9434 255.537679,126.5374 257.670679,126.5374 Z M273.303679,126.5374 C277.488679,126.5374 279.702679,123.0004 279.702679,117.3574 C279.702679,112.1734 277.731679,108.3934 273.492679,108.3934 C269.388679,108.3934 267.066679,112.0654 267.066679,117.5194 C267.093679,122.8654 269.253679,126.5374 273.303679,126.5374 Z M273.411679,123.9994 C271.622756,123.9994 270.449028,121.897483 270.414989,117.843504 L270.414679,117.5194 C270.387679,113.1184 271.629679,110.9314 273.411679,110.9314 C275.409679,110.9314 276.381679,113.3344 276.381679,117.4114 C276.381679,121.6234 275.355679,123.9994 273.411679,123.9994 Z" id="130" transform="translate(259.722679, 117.465400) rotate(84.000000) translate(-259.722679, -117.465400) "></path>
                    <path d="M241.195308,187.119195 L241.195308,169.4039 L238.388115,169.4039 L234.081935,171.529735 L234.654276,174.064385 L237.897537,172.429127 L237.952046,172.429127 L237.952046,187.119195 L241.195308,187.119195 Z M251.960756,187.418992 C256.321444,187.418992 259.128637,184.666308 259.128637,181.286775 C259.128637,179.133685 258.147482,177.634699 256.812022,176.789815 C255.612832,175.999441 254.059337,175.645135 252.505842,175.645135 C251.98801,175.645135 251.633705,175.672389 251.22489,175.726898 L251.742722,172.183839 L258.556297,172.183839 L258.556297,169.4039 L249.398852,169.4039 L248.226917,178.34331 C248.935529,178.234293 249.671395,178.179785 250.65255,178.179785 C254.195609,178.179785 255.694595,179.515245 255.694595,181.532064 C255.694595,183.657899 253.814049,184.775325 251.851739,184.775325 C250.243735,184.775325 248.717494,184.257494 247.954374,183.848679 L247.273017,186.383329 C248.199663,186.901161 249.916684,187.418992 251.960756,187.418992 Z M267.95903,187.418992 C272.183447,187.418992 274.418299,183.848679 274.418299,178.15253 C274.418299,172.919705 272.428735,169.104103 268.14981,169.104103 C264.007157,169.104103 261.663287,172.810688 261.663287,178.316056 C261.690541,183.712408 263.870885,187.418992 267.95903,187.418992 Z M268.068047,184.857088 C266.214755,184.857088 265.015566,182.622236 265.04282,178.316056 C265.015566,173.873605 266.269264,171.666007 268.068047,171.666007 C270.084866,171.666007 271.06602,174.09164 271.06602,178.207039 C271.06602,182.45871 270.030357,184.857088 268.068047,184.857088 Z" id="150" transform="translate(254.250117, 178.261548) rotate(106.000000) translate(-254.250117, -178.261548) "></path>
                </g>
                <g id="speed-bottom-details" transform="translate(86.516301, 286.922420)">
                    <line x1="-5.10702591e-15" y1="3.23170876" x2="3.05647399" y2="13.3805593" id="Stroke-42" stroke="#000000" stroke-width="3"></line>
                    <line x1="26.158578" y1="0.931558763" x2="25.6906012" y2="11.1824144" id="Stroke-44" stroke="#000000" stroke-width="3"></line>
                    <line x1="53.2804971" y1="10.7170325" x2="46.9681272" y2="19.5702851" id="Stroke-46" stroke="#000000" stroke-width="3"></line>
                    <line x1="64.7382197" y1="35.1794582" x2="73.3891445" y2="30.7534943" id="Stroke-48" stroke="#000000" stroke-width="3"></line>
                    <line x1="71.2856416" y1="56.3818258" x2="81.5731561" y2="54.9828979" id="Stroke-50" stroke="#000000" stroke-width="3"></line>
                    <line x1="125.297087" y1="54.7504057" x2="136.987202" y2="56.8474727" id="Stroke-52" stroke="#000000" stroke-width="3"></line>
                    <line x1="134.415191" y1="30.986649" x2="143.301434" y2="35.4139376" id="Stroke-54" stroke="#000000" stroke-width="3"></line>
                    <line x1="153.588682" y1="9.78428144" x2="159.901052" y2="18.8706887" id="Stroke-56" stroke="#000000" stroke-width="3"></line>
                    <line x1="180.009566" y1="2.7533531e-14" x2="180.94552" y2="11.1821495" id="Stroke-58" stroke="#000000" stroke-width="3"></line>
                    <line x1="207.83385" y1="1.86298505" x2="205.028647" y2="13.2796139" id="Stroke-60" stroke="#000000" stroke-width="3"></line>
                    <path d="M41.101,33.3307804 C41.101,36.8161773 38.2665491,39.6418526 34.7686879,39.6418526 C31.2708266,39.6418526 28.4363757,36.8161773 28.4363757,33.3307804 C28.4363757,29.8467082 31.2708266,27.021033 34.7686879,27.021033 C38.2665491,27.021033 41.101,29.8467082 41.101,33.3307804" id="random-circle1" fill="#000000"></path>
                    <path d="M178.681416,33.5908273 C178.681416,37.0762242 175.845636,39.9018995 172.349104,39.9018995 C168.851243,39.9018995 166.016792,37.0762242 166.016792,33.5908273 C166.016792,30.1054304 168.851243,27.2797552 172.349104,27.2797552 C175.845636,27.2797552 178.681416,30.1054304 178.681416,33.5908273" id="random-circle2" fill="#000000"></path>
                </g>
                <path d="M48.028,257 L48.208,253.748 C48.268,252.644 48.316,251.36 48.352,250.304 L48.376,250.304 C48.592,251.312 48.88,252.416 49.192,253.448 L50.272,256.904 L51.412,256.904 L52.588,253.4 C52.948,252.38 53.284,251.288 53.548,250.304 L53.584,250.304 C53.572,251.396 53.632,252.656 53.68,253.7 L53.836,257 L55.276,257 L54.808,248.912 L52.888,248.912 L51.772,252.152 C51.46,253.1 51.184,254.096 50.968,254.972 L50.932,254.972 C50.728,254.072 50.476,253.112 50.188,252.164 L49.132,248.912 L47.188,248.912 L46.648,257 L48.028,257 Z M58.24,257 L58.24,253.952 C58.432,253.988 58.684,254 58.96,254 C60.004,254 60.928,253.724 61.516,253.136 C61.972,252.704 62.212,252.068 62.212,251.3 C62.212,250.544 61.9,249.908 61.42,249.512 C60.904,249.08 60.112,248.852 59.032,248.852 C58.036,248.852 57.304,248.924 56.776,249.02 L56.776,257 L58.24,257 Z M58.96,252.848 C58.66,252.848 58.42,252.836 58.24,252.788 L58.24,250.052 C58.396,250.016 58.684,249.98 59.092,249.98 C60.112,249.98 60.736,250.46 60.736,251.36 C60.736,252.308 60.064,252.848 58.96,252.848 Z M64.96,257 L64.96,253.436 L68.38,253.436 L68.38,257 L69.856,257 L69.856,248.912 L68.38,248.912 L68.38,252.152 L64.96,252.152 L64.96,248.912 L63.484,248.912 L63.484,257 L64.96,257 Z M75.448,257 L75.448,255.008 L75.952,254.42 L77.632,257 L79.444,257 L76.972,253.544 L79.132,251.156 L77.356,251.156 L75.94,253.04 C75.784,253.244 75.616,253.496 75.472,253.724 L75.448,253.724 L75.448,248.48 L73.972,248.48 L73.972,257 L75.448,257 Z M81.832,257 L81.832,253.544 C81.832,253.376 81.856,253.208 81.916,253.064 C82.048,252.656 82.42,252.224 82.972,252.224 C83.656,252.224 83.98,252.8 83.98,253.616 L83.98,257 L85.42,257 L85.42,253.496 C85.42,253.328 85.456,253.148 85.492,253.004 C85.648,252.584 86.02,252.224 86.524,252.224 C87.232,252.224 87.568,252.8 87.568,253.772 L87.568,257 L89.008,257 L89.008,253.556 C89.008,251.684 88.024,251.024 87.052,251.024 C86.572,251.024 86.2,251.144 85.876,251.372 C85.6,251.54 85.36,251.78 85.156,252.104 L85.132,252.104 C84.88,251.456 84.28,251.024 83.512,251.024 C82.528,251.024 82,251.564 81.712,252.02 L81.676,252.02 L81.616,251.156 L80.344,251.156 C80.38,251.66 80.392,252.224 80.392,252.896 L80.392,257 L81.832,257 Z M90.904,257.48 L93.832,248.78 L92.8,248.78 L89.872,257.48 L90.904,257.48 Z M96.1,257 L96.1,253.508 C96.1,253.34 96.112,253.184 96.16,253.064 C96.316,252.62 96.724,252.236 97.3,252.236 C98.116,252.236 98.428,252.872 98.428,253.724 L98.428,257 L99.904,257 L99.904,253.556 C99.904,251.684 98.86,251.024 97.864,251.024 C97.492,251.024 97.144,251.12 96.856,251.288 C96.544,251.456 96.304,251.684 96.124,251.96 L96.1,251.96 L96.1,248.48 L94.612,248.48 L94.612,257 L96.1,257 Z" id="MPHkm/h" fill="#000000" fill-rule="nonzero"></path>
            </g>
            <g id="speed-working" transform="translate(0.500000, 0.000000)">
                <g id="spinner" transform="translate(0.652110, 0.055095)">
                    <path d="M223.913381,173.81276 C220.495288,171.044048 208.462167,172.856296 206.005288,173.261667 C201.914479,169.386796 196.395809,166.995636 190.306791,166.995636 C178.306907,166.995636 168.492687,176.231739 167.585982,187.955708 C166.515751,191.7246 165.191589,196.370471 164.24367,199.626688 L66.5096238,236.333971 C66.5096238,236.333971 62.3616469,240.468492 68.170144,239.09076 C73.5306064,237.819007 154.433439,207.924873 166.858757,203.329342 C168.071242,203.34259 169.492456,203.49626 170.847196,204.561353 C172.963728,206.226554 175.61471,207.648002 177.612919,208.607115 C181.241069,211.034043 185.60841,212.452842 190.306791,212.452842 C202.903612,212.452842 213.116676,202.276172 213.116676,189.722914 C213.116676,189.697744 213.112687,189.673899 213.112687,189.648729 C216.104017,185.928853 221.30893,183.947038 222.722167,182.363971 C224.628641,180.227162 227.727658,176.900734 223.913381,173.81276" id="spin" fill="#000000"></path>
                    <path d="M384.304345,192.150845 C384.304345,298.274103 298.274103,384.303017 192.152172,384.303017 C86.0302414,384.303017 -2.27373675e-13,298.274103 -2.27373675e-13,192.150845 C-2.27373675e-13,86.0289138 86.0302414,-5.68434189e-14 192.152172,-5.68434189e-14 C298.274103,-5.68434189e-14 384.304345,86.0289138 384.304345,192.150845" id="backspin"></path>
                    <path d="M198.899884,174.077973 C197.491965,173.610339 192.119537,172.134576 189.235895,171.349004 C188.693468,171.160891 188.137745,171.005896 187.564739,170.894618 C187.454393,170.864148 187.375953,170.844277 187.375953,170.844277 L187.386589,170.866798 C186.687283,170.743597 185.972023,170.668087 185.23815,170.668087 C178.492369,170.668087 173.025549,176.115427 173.025549,182.83452 C173.025549,189.556262 178.492369,195.003602 185.23815,195.003602 C189.511098,195.003602 193.265549,192.812478 195.447225,189.501947 L195.492427,189.603953 C195.492427,189.603953 200.198786,182.001257 200.685375,180.061834 C201.171965,178.121087 200.847572,174.724447 198.899884,174.077973" id="spin2" fill="#FFFFFF"></path>
                </g>
                <path d="M96.6238035,213.949124 C96.6238035,216.103155 94.8728786,217.849165 92.7111445,217.849165 C90.5494104,217.849165 88.7958266,216.103155 88.7958266,213.949124 C88.7958266,211.795093 90.5494104,210.050408 92.7111445,210.050408 C94.8728786,210.050408 96.6238035,211.795093 96.6238035,213.949124" id="scolor-1" fill="#000000"></path>
                <path d="M94.4762948,188.205938 C94.4762948,190.358644 92.7240405,192.104654 90.5623064,192.104654 C88.4005723,192.104654 86.6483179,190.358644 86.6483179,188.205938 C86.6483179,186.051907 88.4005723,184.305896 90.5623064,184.305896 C92.7240405,184.305896 94.4762948,186.051907 94.4762948,188.205938" id="scolor-2" fill="#000000"></path>
                <path d="M97.3793468,164.306262 C97.3793468,166.460293 95.6270925,168.206304 93.4653584,168.206304 C91.3036243,168.206304 89.5513699,166.460293 89.5513699,164.306262 C89.5513699,162.152231 91.3036243,160.407546 93.4653584,160.407546 C95.6270925,160.407546 97.3793468,162.152231 97.3793468,164.306262" id="scolor-3" fill="#000000"></path>
                <path d="M107.292081,141.965411 C105.737919,143.46237 103.259769,143.419978 101.757457,141.871355 C100.255145,140.322731 100.297688,137.853411 101.85185,136.357777 C103.406012,134.860819 105.882832,134.901886 107.385145,136.450509 C108.887457,137.999133 108.846243,140.468453 107.292081,141.965411" id="scolor-4" fill="#000000"></path>
                <path d="M122.36426,122.46812 C120.810098,123.965078 118.333277,123.924011 116.830965,122.375388 C115.328653,120.825439 115.369867,118.35612 116.924029,116.860486 C118.478191,115.363527 120.956341,115.404594 122.458653,116.953218 C123.960965,118.503166 123.918422,120.971161 122.36426,122.46812" id="scolor-5" fill="#000000"></path>
                <path d="M143.724214,106.956712 C142.170052,108.453671 139.693231,108.411279 138.190919,106.862656 C136.688607,105.314032 136.729821,102.844712 138.283983,101.349078 C139.838145,99.8521196 142.316295,99.8931866 143.818607,101.44181 C145.320919,102.990434 145.278376,105.459754 143.724214,106.956712" id="scolor-6" fill="#000000"></path>
                <path d="M167.242046,97.7702871 C165.080312,97.7530655 163.341353,95.9938077 163.358636,93.8397768 C163.375919,91.6857459 165.141468,89.9543077 167.303202,89.9702046 C169.463607,89.9874263 171.202566,91.746684 171.186613,93.9007149 C171.169329,96.0547459 169.40378,97.7875088 167.242046,97.7702871" id="scolor-7" fill="#000000"></path>
                <path d="M193.094179,95.8296722 C190.932445,95.8124505 189.193486,94.0531928 189.210769,91.8991619 C189.228052,89.7451309 190.993601,88.0136928 193.154006,88.0295897 C195.31574,88.0468113 197.054699,89.8060691 197.037416,91.9601 C197.021462,94.1128062 195.254584,95.8455691 193.094179,95.8296722" id="s-8" fill="#000000"></path>
                <path d="M217.054595,98.9074459 C214.892861,98.8902242 213.153902,97.1309665 213.171185,94.9769356 C213.188468,92.8229046 214.954017,91.0914665 217.115751,91.1073634 C219.277486,91.1245851 221.015116,92.8838428 220.999162,95.0378737 C220.981879,97.1919046 219.216329,98.9246675 217.054595,98.9074459" id="s-9" fill="#000000"></path>
                <path d="M239.398763,108.958133 C237.908416,107.397587 237.969572,104.929592 239.535699,103.444556 C241.101827,101.95952 243.579977,102.020458 245.068994,103.579679 C246.559341,105.140226 246.498185,107.609545 244.932058,109.094581 C243.365931,110.579618 240.88911,110.518679 239.398763,108.958133" id="s-10" fill="#000000"></path>
                <path d="M258.84759,124.128022 C257.357243,122.567475 257.419728,120.09948 258.985855,118.614444 C260.550653,117.129408 263.028803,117.191671 264.517821,118.750893 C266.008168,120.311439 265.947012,122.779434 264.380884,124.26447 C262.814757,125.749506 260.337936,125.688568 258.84759,124.128022" id="s-11" fill="#000000"></path>
                <path d="M274.248283,145.530823 C272.757936,143.970276 272.820422,141.502281 274.386549,140.01857 C275.951347,138.533534 278.429497,138.594472 279.919844,140.153694 C281.408861,141.71424 281.347705,144.182235 279.781578,145.668596 C278.215451,147.153632 275.73863,147.091369 274.248283,145.530823" id="s-12" fill="#000000"></path>
                <path d="M282.924867,166.451153 C282.970069,164.297122 284.760879,162.589529 286.921283,162.635895 C289.083017,162.682261 290.796717,164.465364 290.750185,166.61807 C290.703653,168.772101 288.914173,170.479694 286.752439,170.433328 C284.592035,170.386962 282.878335,168.603859 282.924867,166.451153" id="s-13" fill="#000000"></path>
                <path d="M285.991578,190.870922 C286.03678,188.718215 287.82759,187.009298 289.987994,187.055664 C292.149728,187.10203 293.863428,188.885133 293.816896,191.039164 C293.770364,193.19187 291.980884,194.900788 289.81915,194.854422 C287.658746,194.808056 285.945046,193.024953 285.991578,190.870922" id="s-14" fill="#000000"></path>
                <path d="M281.77726,216.870313 C281.822462,214.717607 283.613272,213.010014 285.773676,213.05638 C287.93541,213.101422 289.64911,214.885849 289.602578,217.038556 C289.556046,219.192587 287.766566,220.900179 285.606162,220.853813 C283.444428,220.807447 281.730728,219.024344 281.77726,216.870313" id="s-15" fill="#000000"></path>
            </g>
        </g>
        <g id="gas" transform="translate(53.000000, 344.000000)">
            <g id="gas-details">
                <path d="M310.683151,155.442216 C310.683151,241.22207 241.198091,310.760393 155.483941,310.760393 C69.771361,310.760393 0.286301,241.22207 0.286301,155.442216 C0.286301,69.6623624 69.771361,0.124038966 155.483941,0.124038966 C241.198091,0.124038966 310.683151,69.6623624 310.683151,155.442216" id="whitegas" fill="#FFFFFF"></path>
                <path d="M285.463456,155.888752 C285.463456,227.315662 227.604246,285.219224 156.232046,285.219224 C84.861416,285.219224 27.000636,227.315662 27.000636,155.888752 C27.000636,84.4602709 84.861416,26.5582805 156.232046,26.5582805 C227.604246,26.5582805 285.463456,84.4602709 285.463456,155.888752 Z" id="gas-stroke1" stroke="#000000" stroke-width="2"></path>
                <path d="M295.91526,155.888752 C295.91526,233.092977 233.37745,295.678725 156.23236,295.678725 C79.08884,295.678725 16.54946,233.092977 16.54946,155.888752 C16.54946,78.6829558 79.08884,16.0972077 156.23236,16.0972077 C233.37745,16.0972077 295.91526,78.6829558 295.91526,155.888752 Z" id="gas-stroke2" stroke="#000000" stroke-width="3"></path>
                <path d="M311.894249,155.888752 C311.894249,241.924712 242.201949,311.668863 156.233459,311.668863 C70.263399,311.668863 0.569529,241.924712 0.569529,155.888752 C0.569529,69.851221 70.263399,0.107069968 156.233459,0.107069968 C242.201949,0.107069968 311.894249,69.851221 311.894249,155.888752 Z" id="gas-stroke3" stroke="#000000" stroke-width="8"></path>
            </g>
            <polygon id="E" fill="#000000" fill-rule="nonzero" points="70.906 191 70.906 188.273 63.238 188.273 63.238 182.927 70.096 182.927 70.096 180.227 63.238 180.227 63.238 175.529 70.501 175.529 70.501 172.802 59.917 172.802 59.917 191"></polygon>
            <polygon id="F" fill="#000000" fill-rule="nonzero" points="247.238 195 247.238 187.278 253.934 187.278 253.934 184.551 247.238 184.551 247.238 179.529 254.42 179.529 254.42 176.802 243.917 176.802 243.917 195"></polygon>
            <g id="gas-circles" transform="translate(34.000000, 38.000000)" fill="#000000">
                <path d="M117.917087,102.323303 C122.465292,102.323303 127.015067,102.298273 131.561702,102.337382 C133.005003,102.349897 133.663048,101.811758 133.656811,100.319362 C133.623785,93.4956396 133.622215,86.6719168 133.655196,79.8497584 C133.663048,78.3698772 133.02699,77.7910653 131.582119,77.7941941 C122.485708,77.8129663 113.387728,77.8129663 104.291317,77.7847951 C102.789907,77.7816792 102.084747,78.351105 102.092529,79.9123327 C102.12558,86.681303 102.12401,93.4502733 102.092529,100.217679 C102.084747,101.761699 102.73651,102.357719 104.272471,102.342075 C108.820676,102.292016 113.368881,102.323303 117.917087,102.323303 M139.214811,108.931145 L139.214811,110.636293 C139.216381,122.985323 139.216381,135.332788 139.217952,147.680253 C139.217952,149.990808 139.257215,150.069026 141.561157,150.222333 C142.988753,150.319323 143.547856,150.935679 143.538433,152.401481 C143.514875,156.246669 143.568272,156.246669 139.638849,156.246669 C124.66401,156.246669 109.68917,156.259184 94.7159006,156.210689 C93.8175673,156.20756 92.248625,155.868095 92.1512532,155.426947 C91.8324391,153.99556 91.9690737,152.437461 92.1339776,150.949758 C92.1669583,150.663481 93.1045545,150.336531 93.6558045,150.270828 C96.1277917,149.981422 96.1325032,150.011145 96.1325032,147.50661 C96.1309327,124.394808 96.1780481,101.283006 96.0791058,78.1727683 C96.0634006,74.6764317 97.7391378,71.9544515 102.290484,72.0326693 C112.654298,72.2110059 123.024394,72.0874218 133.391349,72.0936792 C137.446413,72.0968079 139.21324,73.8488871 139.214811,77.8426891 C139.216381,85.6550851 139.216381,93.4674812 139.216381,101.281442 L139.216381,103.221244 C140.125708,103.337006 140.975356,103.433996 141.820292,103.554451 C146.512984,104.222432 150.079619,108.173996 150.11417,112.898352 C150.165997,119.836273 150.111029,126.775758 150.142439,133.713679 C150.161285,137.802907 152.479362,140.635956 156.345965,141.429085 C161.073208,142.397422 165.76276,137.67463 164.716798,132.973739 C163.09917,125.691659 161.313497,118.443996 159.88276,111.125937 C158.993849,106.586174 158.653048,101.943164 158.029554,97.3502139 C157.145356,90.8424911 154.194362,85.3531644 149.630452,80.6835604 C148.483978,79.5087287 147.247984,78.4199366 146.139202,77.2122535 C145.690035,76.7257386 145.255003,76.051501 145.18276,75.4226297 C144.808978,72.128095 145.707311,71.4569861 148.744683,72.6286891 C157.874074,76.1484911 163.287631,83.1411644 166.843272,91.8608871 C167.317567,93.0216396 167.689779,94.221501 168.167215,95.3822535 C168.665067,96.5930653 168.431061,97.2391446 167.041157,97.6114614 C163.565612,98.5438178 163.639426,98.5985703 164.043048,102.130887 C165.148689,111.793917 167.125965,121.270788 169.820965,130.619382 C171.916029,137.887382 167.820131,144.804966 160.512535,146.661857 C153.661958,148.399857 146.670035,144.093184 144.994298,137.012907 C144.686478,135.703541 144.710035,134.300313 144.703753,132.939323 C144.675484,126.602115 144.711606,120.264907 144.681766,113.926135 C144.666061,110.489244 142.781446,108.712135 139.214811,108.931145" id="gas-symbol"></path>
                <path d="M11.680375,147.734067 C11.6568173,150.277711 9.56803526,152.32076 7.01438141,152.297295 C4.46072756,152.272265 2.41120833,150.191671 2.43476603,147.648028 C2.45832372,145.105949 4.54710577,143.064463 7.10075962,143.086364 C9.65441346,143.111394 11.7055032,145.191988 11.680375,147.734067" id="gas-color1"></path>
                <path d="M9.42747436,117.311558 C9.40234615,119.855202 7.3135641,121.898251 4.75991026,121.874786 C2.20782692,121.849756 0.156737179,119.769162 0.180294872,117.225519 C0.203852564,114.68344 2.29420513,112.64039 4.84628846,112.663855 C7.39994231,112.687321 9.45103205,114.769479 9.42747436,117.311558" id="gas-color2"></path>
                <path d="M13.1191218,89.1226376 C13.0955641,91.6662812 11.0052115,93.7093307 8.45312821,93.6858653 C5.89947436,93.6608356 3.84995513,91.5802416 3.87194231,89.036598 C3.89707051,86.4945188 5.98585256,84.4514693 8.53950641,84.4749347 C11.0915897,84.4984 13.14425,86.5805584 13.1191218,89.1226376" id="gas-color3"></path>
                <path d="M25.0743365,62.8508356 C23.2227019,64.5997861 20.2968365,64.5231327 18.5394327,62.6787564 C16.7820288,60.8343802 16.858984,57.9199842 18.7106186,56.1694693 C20.5622532,54.4173901 23.4881186,54.4940436 25.2455224,56.3399842 C27.0044968,58.1859248 26.9275417,61.1003208 25.0743365,62.8508356" id="gas-color4"></path>
                <path d="M43.0937724,39.9919901 C41.2421378,41.742505 38.3162724,41.6658515 36.5588686,39.8214752 C34.8014647,37.977099 34.8784199,35.062703 36.7300545,33.3106238 C38.5832596,31.5601089 41.509125,31.6367624 43.2649583,33.482703 C45.0239327,35.3286436 44.9469776,38.2430396 43.0937724,39.9919901" id="gas-color5"></path>
                <path d="M68.4965032,21.9102198 C66.6432981,23.6591703 63.7174327,23.5825168 61.9600288,21.7381406 C60.2041955,19.8937644 60.2811506,16.9793683 62.1312147,15.2288535 C63.9844199,13.4767743 66.9102853,13.5534277 68.6676891,15.3993683 C70.4266635,17.2453089 70.3497083,20.159705 68.4965032,21.9102198" id="gas-color6"></path>
                <path d="M96.3776603,11.3187446 C93.8240064,11.2765069 91.7901923,9.17870495 91.8325962,6.63662574 C91.8765705,4.09298218 93.9826282,2.06714059 96.5347115,2.10937822 C99.0883654,2.1531802 101.122179,4.24941782 101.078205,6.79149703 C101.035801,9.33514059 98.9297436,11.3609822 96.3776603,11.3187446" id="gas-color7"></path>
                <path d="M126.936699,9.30979802 C124.383045,9.2675604 122.349231,7.16975842 122.391635,4.62611485 C122.435609,2.08403564 124.541667,0.056629703 127.09375,0.100431683 C129.647404,0.144233663 131.681218,2.24047129 131.637244,4.7825505 C131.59484,7.32619406 129.488782,9.35203564 126.936699,9.30979802" id="gas-color8"></path>
                <path d="M155.205929,13.2055149 C152.653846,13.1632772 150.618462,11.0670396 150.662436,8.52339604 C150.70641,5.97975248 152.812468,3.95391089 155.364551,3.99614851 C157.918205,4.04151485 159.950449,6.13618812 159.908045,8.67983168 C159.864071,11.2219109 157.759583,13.2493168 155.205929,13.2055149" id="gas-9"></path>
                <path d="M181.48909,25.3184832 C179.747391,23.4600277 179.846333,20.5456317 181.712103,18.809196 C183.577872,17.0727604 186.502167,17.1728792 188.247006,19.0297703 C189.988705,20.8897901 189.889763,23.8041861 188.023994,25.5406218 C186.158224,27.2770574 183.232359,27.1769386 181.48909,25.3184832" id="gas-10"></path>
                <path d="M204.296862,43.4445248 C202.553593,41.5860693 202.652535,38.6716733 204.519875,36.9352376 C206.384074,35.198802 209.309939,35.2989208 211.053208,37.1558119 C212.796478,39.0158317 212.697535,41.9286634 210.830196,43.6666634 C208.965997,45.4015347 206.038561,45.3014158 204.296862,43.4445248" id="gas-11"></path>
                <path d="M222.253321,68.8867485 C220.510051,67.0282931 220.608994,64.113897 222.476333,62.3774614 C224.340532,60.6410257 227.266397,60.7411446 229.009667,62.5980356 C230.752936,64.4580554 230.653994,67.3708871 228.786654,69.1088871 C226.922455,70.8437584 223.995019,70.7436396 222.253321,68.8867485" id="gas-12"></path>
                <path d="M232.270051,93.6827366 C232.350147,91.1406574 234.481333,89.1445386 237.033417,89.2211921 C239.5855,89.2994099 241.592615,91.4253703 241.51409,93.9674495 C241.433994,96.5095287 239.302808,98.5072119 236.750724,98.4274297 C234.198641,98.3492119 232.191526,96.2248158 232.270051,93.6827366" id="gas-13"></path>
                <path d="M235.624196,122.553091 C235.702721,120.011012 237.835478,118.014893 240.387561,118.091547 C242.939644,118.169764 244.945189,120.295725 244.866663,122.837804 C244.788138,125.379883 242.655381,127.376002 240.103298,127.297784 C237.551215,127.219566 235.54567,125.09517 235.624196,122.553091" id="gas-14"></path>
                <path d="M230.360622,153.20775 C230.439147,150.665671 232.570333,148.669552 235.122417,148.746206 C237.6745,148.824424 239.681615,150.950384 239.60309,153.492463 C239.522994,156.034543 237.391808,158.032226 234.839724,157.952444 C232.287641,157.874226 230.280526,155.74983 230.360622,153.20775" id="gas-15"></path>
            </g>
        </g>
        <g id="gear" transform="translate(661.000000, 337.000000)">
            <g id="gear-details">
                <path d="M318.171015,160.031236 C318.171015,247.822191 247.002372,318.990834 159.211417,318.990834 C71.4220704,318.990834 0.255035176,247.822191 0.255035176,160.031236 C0.255035176,72.2402814 71.4220704,1.07163819 159.211417,1.07163819 C247.002372,1.07163819 318.171015,72.2402814 318.171015,160.031236" id="whitegear" fill="#FFFFFF"></path>
                <path d="M291.795457,159.566513 C291.795457,232.66802 232.534352,291.929126 159.432844,291.929126 C86.3329447,291.929126 27.0718392,232.66802 27.0718392,159.566513 C27.0718392,86.465005 86.3329447,27.2038995 159.432844,27.2038995 C232.534352,27.2038995 291.795457,86.465005 291.795457,159.566513 Z" id="gear-stroke-1" stroke="#000000" stroke-width="2"></path>
                <path d="M318.866653,159.566513 C318.866653,247.619578 247.485749,318.998874 159.434291,318.998874 C71.3812261,318.998874 0.00032160804,247.619578 0.00032160804,159.566513 C0.00032160804,71.5134472 71.3812261,0.132542714 159.434291,0.132542714 C247.485749,0.132542714 318.866653,71.5134472 318.866653,159.566513 Z" id="gear-stroke-2" stroke="#000000" stroke-width="8"></path>
                <path d="M302.500503,159.566513 C302.500503,238.580784 238.447437,302.633849 159.433166,302.633849 C80.4205025,302.633849 16.3674372,238.580784 16.3674372,159.566513 C16.3674372,80.5522412 80.4205025,16.4991759 159.433166,16.4991759 C238.447437,16.4991759 302.500503,80.5522412 302.500503,159.566513 Z" id="gear-stroke-3" stroke="#000000" stroke-width="3"></path>
                <path d="M213.94991,183.779739 L183.268503,183.779739 L183.268503,180.973709 L213.131417,180.973709 C216.281568,180.973709 218.859256,178.394412 218.859256,175.245869 L218.859256,157.184362 C218.859256,154.035819 216.281568,151.456523 213.131417,151.456523 L183.268503,151.456523 L183.268503,148.650492 L212.312925,148.650492 C215.463075,148.650492 218.039156,146.074412 218.039156,142.924261 L218.039156,124.861146 C218.039156,121.712603 215.463075,119.136523 212.312925,119.136523 L183.268503,119.136523 L183.268503,72.7140101 C183.268503,67.0070754 178.60197,62.3389347 172.896643,62.3389347 L124.20197,62.3389347 C118.498251,62.3389347 113.828503,67.0070754 113.828503,72.7140101 L113.828503,244.996221 C113.828503,250.69994 118.498251,255.369688 124.20197,255.369688 L172.896643,255.369688 C178.60197,255.369688 183.268503,250.69994 183.268503,244.996221 L183.268503,213.293709 L213.94991,213.293709 C217.10006,213.293709 219.677749,210.717628 219.677749,207.567477 L219.677749,189.507578 C219.677749,186.357427 217.10006,183.779739 213.94991,183.779739" id="gear" fill="#000000"></path>
            </g>
            <path d="M196.825,112 L196.825,105.65 C197.225,105.725 197.75,105.75 198.325,105.75 C200.5,105.75 202.425,105.175 203.65,103.95 C204.6,103.05 205.1,101.725 205.1,100.125 C205.1,98.55 204.45,97.225 203.45,96.4 C202.375,95.5 200.725,95.025 198.475,95.025 C196.4,95.025 194.875,95.175 193.775,95.375 L193.775,112 L196.825,112 Z M198.325,103.35 C197.7,103.35 197.2,103.325 196.825,103.225 L196.825,97.525 C197.15,97.45 197.75,97.375 198.6,97.375 C200.725,97.375 202.025,98.375 202.025,100.25 C202.025,102.225 200.625,103.35 198.325,103.35 Z" id="P" fill="#000000" fill-rule="nonzero"></path>
            <polygon id="L" fill="#000000" fill-rule="nonzero" points="204.775 238 204.775 235.425 197.85 235.425 197.85 221.15 194.775 221.15 194.775 238"></polygon>
            <path d="M194.825,142 L194.825,135.075 L196.375,135.075 C198.125,135.125 198.925,135.825 199.4,138.025 C199.875,140.125 200.275,141.5 200.525,142 L203.7,142 C203.35,141.35 202.9,139.4 202.375,137.3 C201.95,135.675 201.225,134.5 200.025,134.05 L200.025,133.975 C201.6,133.4 203.075,131.925 203.075,129.75 C203.075,128.325 202.55,127.15 201.625,126.375 C200.5,125.425 198.85,125.025 196.425,125.025 C194.65,125.025 192.925,125.175 191.775,125.375 L191.775,142 L194.825,142 Z M196.65,132.825 L194.825,132.825 L194.825,127.5 C195.125,127.425 195.75,127.35 196.725,127.35 C198.725,127.35 200.025,128.2 200.025,130.05 C200.025,131.725 198.725,132.825 196.65,132.825 Z" id="R" fill="#FFFFFF" fill-rule="nonzero"></path>
            <path d="M196.6,174 L196.6,167.975 C196.6,165.2 196.575,162.975 196.45,160.8 L196.525,160.775 C197.35,162.675 198.475,164.75 199.55,166.6 L203.95,174 L207.125,174 L207.125,157.15 L204.275,157.15 L204.275,163.025 C204.275,165.6 204.35,167.775 204.55,170.025 L204.5,170.025 C203.725,168.2 202.75,166.25 201.625,164.375 L197.275,157.15 L193.775,157.15 L193.775,174 L196.6,174 Z" id="N" fill="#FFFFFF" fill-rule="nonzero"></path>
            <path d="M197.925,206.175 C201.2,206.175 203.875,205.4 205.55,203.875 C207.15,202.425 208.175,200.175 208.175,197.175 C208.175,194.3 207.175,192.3 205.55,190.975 C204,189.675 201.825,189.025 198.675,189.025 C196.85,189.025 195.125,189.15 193.775,189.375 L193.775,205.95 C194.775,206.075 196.125,206.175 197.925,206.175 Z M198.55,203.725 C197.925,203.725 197.275,203.725 196.85,203.65 L196.85,191.6 C197.275,191.5 197.975,191.425 198.95,191.425 C202.8,191.425 204.95,193.55 204.925,197.275 C204.925,201.55 202.55,203.75 198.55,203.725 Z" id="D" fill="#FFFFFF" fill-rule="nonzero"></path>
            <path d="M161.804829,113 L138.195171,113 C134.238308,113 131,109.744599 131,105.766849 L131,90.234763 C131,86.2554015 134.238308,83 138.195171,83 L161.804829,83 C165.763296,83 169,86.2554015 169,90.234763 L169,105.766849 C169,109.744599 165.763296,113 161.804829,113" id="gearsquare" fill="#FFFFFF"></path>
        </g>
        <g id="seatbelt" transform="translate(79.000000, 912.000000)">
            <g id="Group-3" transform="translate(0.000000, 2.000000)">
                <mask id="mask-2" fill="white">
                    <use xlink:href="#path-1"></use>
                </mask>
                <g id="Clip-2"></g>
                <path d="M84.1617,45.4750588 C88.3127,45.4750588 92.4602,45.4503529 96.6112,45.4821176 C99.8837,45.5032941 101.7177,44.0844706 101.7142,40.6185882 C101.6967,32.4338824 101.9242,24.2350588 101.5147,16.068 C101.4377,14.5362353 98.9072,11.9421176 97.4092,11.8644706 C88.9497,11.4409412 80.4587,11.6562353 71.9782,11.6138824 C68.7162,11.5959168 67.5577,13.3115294 67.5822,16.4138824 C67.6487,24.5985882 67.6557,32.7868235 67.5822,40.9750588 C67.5542,44.2821176 69.1887,45.5244706 72.2547,45.4927059 C76.2202,45.4503529 80.1927,45.4821176 84.1617,45.4750588 L84.1617,45.4750588 Z M111.9307,28.8797647 C111.9307,35.0562353 112.0077,41.2362353 111.9097,47.4091765 C111.8047,53.8962353 109.8097,56.1727059 103.6007,56.2503529 C90.9902,56.4056471 78.3762,56.3209412 65.7622,56.2785882 C60.7992,56.2644706 57.4917,54.4291765 57.1662,48.7185882 C57.1032,47.6209412 55.0557,45.9444706 53.7397,45.7397647 C48.7872,44.9668235 43.9222,45.468 40.4432,49.7421176 C33.2507,58.5868235 23.9547,60.4997647 13.0347,59.8997647 C-1.9138,59.0774118 0.1757,61.0856471 0.0217,46.6750588 C-0.0343,41.2256471 0.0882,35.7727059 0.0217,30.3268235 C-0.0168,27.108 1.5442,25.2338824 4.5857,25.7774118 C17.6162,28.1174118 27.1257,21.8103529 36.7402,14.1268235 C39.9882,11.5291765 45.8577,11.9703529 50.5757,11.6350588 C54.3977,11.3632941 57.5757,11.688 57.8137,6.17505882 C57.8872,4.43505882 61.2612,1.46329412 63.2002,1.39976471 C77.4102,0.933882353 91.6412,0.905647059 105.8617,1.10329412 C110.2577,1.16682353 111.8712,4.61505882 111.8992,8.71270588 C111.9482,15.4362353 111.9132,22.1597647 111.9132,28.8797647 L111.9307,28.8797647 Z" id="Fill-1" fill="#FFFFFF" mask="url(#mask-2)"></path>
            </g>
            <path d="M198.748656,31.8728107 C201.647089,32.1645557 204.248337,32.0464685 204.251834,27.725864 C204.251834,24.0373737 202.846321,22.7245213 199.164716,22.6550582 C195.33277,22.5855951 193.699997,23.7838334 193.528678,27.7744882 C193.357359,31.8276597 195.493599,32.1853947 198.748656,31.8728107 L198.748656,31.8728107 Z M214.485507,27.052072 C214.485507,31.8519718 214.35964,36.6553448 214.583403,41.4448251 C214.632352,42.5180299 215.918991,43.5321911 216.632236,44.5776107 C217.537778,43.6363857 219.205514,42.7090534 219.222995,41.7504627 C219.415292,32.1576094 219.411795,22.5578098 219.216002,12.9649565 C219.198521,11.9924732 217.562252,11.0512483 216.674192,10.0961308 C215.939968,11.1276577 214.625359,12.1244531 214.569418,13.1907116 C214.335166,17.7995879 214.471522,22.4293031 214.485507,27.052072 L214.485507,27.052072 Z M285.963887,41.2642211 C285.963887,45.1958322 285.883472,49.1309165 285.991857,53.0625276 C286.082761,56.4974776 284.387055,57.9457831 281.09354,57.9457831 C274.072967,57.9388368 267.048898,58.1263871 260.042311,57.8415885 C258.084382,57.7617059 255.923668,56.6572427 254.311873,55.4312191 C250.602298,52.6075443 247.581493,48.6064701 243.518792,46.6232988 C239.788238,44.8033657 235.068232,44.8415704 230.7503,44.4907818 C230.162921,44.4421576 228.89726,46.8490538 228.757408,48.200111 C228.362326,52.1143564 226.212101,54.0211183 222.502526,54.2781317 C219.104121,54.5143063 215.677746,54.6080814 212.272348,54.4899942 C208.538299,54.3614875 206.024458,52.3053799 205.821673,48.5682654 C205.611895,44.5671912 203.353284,43.5287179 199.919917,43.125832 C195.997067,42.6673756 192.123165,41.7713017 188.207308,41.2433821 C184.078176,40.6911505 182.158707,38.2182644 182.09927,34.3561164 C182.018855,29.1811159 181.77761,23.9297059 182.553789,18.8554269 C182.861463,16.8687824 185.44523,14.3785305 187.522033,13.6908459 C191.560261,12.3502082 195.962104,12.0237316 200.23808,11.4610806 C203.426707,11.0408288 205.587421,10.0440334 205.78671,6.28608005 C206.003481,2.27111321 208.65018,0.263629796 212.601001,0.107337834 C215.653272,-0.010749426 218.723024,-0.0628467466 221.771799,0.117757298 C225.855478,0.364351282 228.694475,2.21554274 228.656015,6.72022439 C228.631541,9.89121463 230.435633,10.9678926 233.131281,10.5198556 C243.518792,8.79369775 251.644195,13.0309465 258.839583,19.8487492 C262.881307,23.6796388 267.646766,24.6694879 273.163929,24.6069711 C287.764482,24.447206 285.831028,22.9051253 285.991857,37.5097408 C286.005843,38.7600765 285.991857,40.0138854 285.991857,41.2642211 L285.963887,41.2642211 Z" id="Fill-4" fill="#FFFFFF"></path>
            <path d="M137.727208,27.0709206 C146.509297,27.0709206 155.294908,26.9271817 164.073476,27.1410371 C167.520816,27.225177 172.97529,25.4512284 173,31.1797501 C173.021067,36.9398243 167.559551,35.1623699 164.115732,35.2465097 C155.277302,35.4568594 146.43535,35.3166263 137.593399,35.3166263 C137.308174,35.7618663 137.019429,36.2036006 136.734205,36.6488406 C139.857586,39.5271248 143.333096,42.1284486 145.94237,45.4099029 C147.122001,46.8928679 146.576202,49.732588 146.812128,51.9587883 C144.583153,51.7834969 141.604145,52.4671332 140.262534,51.2891753 C134.702422,46.4195812 129.621205,40.9995723 124.388573,35.7583605 C121.293361,32.6521976 121.092648,29.6582211 124.455477,26.4468833 C129.550779,21.5807951 134.262261,16.2975134 139.572362,11.6873506 C141.149899,10.320078 144.952888,9.45413863 146.403659,10.3937003 C149.671413,12.51122 147.861471,15.414045 145.597284,17.5946695 C142.780254,20.3116856 139.864629,22.9305386 136.99478,25.5914615 C137.237749,26.0822773 137.484239,26.5765989 137.727208,27.0709206" id="arrow" fill="#FFFFFF"></path>
        </g>
        <g id="degree" transform="translate(769.000000, 871.000000)" stroke="#FFFFFF" stroke-width="3">
            <path d="M12.5236,21.7597 C12.5236,28.9967 17.9756,32.8897 26.3236,35.1197 C32.5596,33.0037 37.3456,28.5487 37.3456,21.9817 C37.3456,16.1947 33.8966,10.1847 25.0996,10.1847 C16.9736,10.1847 12.5236,15.5287 12.5236,21.7597 Z M39.4616,57.9387 C39.4616,49.1417 33.3386,44.9137 23.5406,42.1307 C15.0796,44.5777 10.5156,50.1477 10.5156,57.0457 C10.1846,64.3967 15.7506,70.8497 24.9906,70.8497 C33.7826,70.8497 39.4616,65.3987 39.4616,57.9387 Z M0.5006,58.3827 C0.5006,49.2557 5.9516,42.7977 14.8576,39.0127 L14.7486,38.6817 C6.7316,34.8937 3.2826,28.6617 3.2826,22.4297 C3.2826,10.9647 12.9676,3.1697 25.6576,3.1697 C39.6836,3.1697 46.6946,11.9657 46.6946,20.9797 C46.6946,27.1027 43.6906,33.6697 34.7846,37.9027 L34.7846,38.2337 C43.8036,41.7957 49.3686,48.1407 49.3686,56.9367 C49.3686,69.5127 38.5686,77.9747 24.7646,77.9747 C9.6276,77.9747 0.5006,68.9607 0.5006,58.3827 Z" id="8"></path>
            <path d="M60.862,65.5073 C63.644,67.2883 70.103,70.0703 76.891,70.0703 C89.472,70.0703 93.365,62.0583 93.257,56.0443 C93.143,45.9153 84.016,41.5733 74.553,41.5733 L69.101,41.5733 L69.101,34.2273 L74.553,34.2273 C81.677,34.2273 90.696,30.5563 90.696,21.9823 C90.696,16.1943 87.021,11.0733 78.007,11.0733 C72.219,11.0733 66.649,13.6333 63.536,15.8593 L60.975,8.7353 C64.759,5.9523 72.106,3.1693 79.896,3.1693 C94.145,3.1693 100.603,11.6313 100.603,20.4233 C100.603,27.8823 96.148,34.2273 87.243,37.4543 L87.243,37.6803 C96.148,39.4623 103.385,46.1373 103.385,56.2663 C103.385,67.8453 94.367,77.9743 77.005,77.9743 C68.879,77.9743 61.755,75.4143 58.193,73.0753 L60.862,65.5073 Z" id="3"></path>
            <path d="M119.8913,15.5283 C119.8913,20.6453 123.6753,24.6553 128.5743,24.6553 C133.5823,24.6553 137.3663,20.5363 137.3663,15.0793 C137.3663,10.9643 134.9193,5.7303 128.5743,5.7303 C122.7823,5.7303 119.8913,10.7373 119.8913,15.5283 Z M143.3763,14.9703 C143.3763,23.9853 136.1423,29.8853 128.4613,29.8853 C119.7783,29.8853 113.8773,23.3193 113.8773,15.5283 C113.7683,6.9533 120.4483,0.5003 128.6833,0.5003 C137.8103,0.5003 143.3763,7.4023 143.3763,14.9703 Z" id="0"></path>
            <polygon id="F" points="154.5294 1.7236 194.9364 1.7236 194.9364 9.8496 164.2144 9.8496 164.2144 34.7846 192.5984 34.7846 192.5984 42.7976 164.2144 42.7976 164.2144 76.7506 154.5294 76.7506"></polygon>
        </g>
    </g>
</svg>